<?xml version="1.0" encoding="UTF-8"?>
<svg version="1.1" xmlns="http://www.w3.org/2000/svg" width="900" height="520">
<path d="M0 0 C297 0 594 0 900 0 C900 171.6 900 343.2 900 520 C603 520 306 520 0 520 C0 348.4 0 176.8 0 0 Z " fill="#F6F6F6" transform="translate(0,0)"/>
<path d="M0 0 C2.60031624 2.25923104 5.16199073 4.54883408 7.6953125 6.8828125 C9.98848406 8.98942095 12.33291729 11.02503281 14.6875 13.0625 C18.14963259 16.1365827 21.22360895 19.36202388 24.20703125 22.8984375 C26.13819529 25.16198054 28.15961373 27.32284382 30.1875 29.5 C40.52672389 40.99974902 49.11512224 53.73353692 57 67 C57.56581787 67.93416748 57.56581787 67.93416748 58.14306641 68.88720703 C69.85282215 88.2918001 77.72996252 109.28566774 84 131 C84.21881836 131.74846191 84.43763672 132.49692383 84.66308594 133.26806641 C86.04941987 138.13426217 87.10607574 143.02080331 88 148 C88.27070312 149.50651123 88.27070312 149.50651123 88.546875 151.04345703 C93.53437479 180.08806095 94.03335507 209.92265279 89 239 C88.86609863 239.83096191 88.73219727 240.66192383 88.59423828 241.51806641 C85.35772065 261.36478485 79.14849695 280.49066273 71.375 299 C70.93212646 300.05525879 70.48925293 301.11051758 70.03295898 302.19775391 C67.50855614 308.02602434 64.67445008 313.4639797 61.32568359 318.86035156 C59.80860687 321.3089078 58.45569578 323.82105592 57.125 326.375 C47.24471685 344.62144499 33.88846587 361.60057133 19 376 C16.57666853 378.40431003 14.17270196 380.81895645 11.81640625 383.2890625 C5.06979628 390.28121633 -2.24404424 396.17613286 -10 402 C-10.5460791 402.41749512 -11.0921582 402.83499023 -11.65478516 403.26513672 C-22.13321797 411.25308021 -33.4435205 417.70561609 -45 424 C-45.65500488 424.35723145 -46.31000977 424.71446289 -46.98486328 425.08251953 C-104.25950061 455.92514096 -174.9408884 461.28685659 -237 443 C-258.98513945 436.32535122 -279.67215668 427.45748153 -299 415 C-299.62068359 414.60312988 -300.24136719 414.20625977 -300.88085938 413.79736328 C-314.58248547 404.99466212 -327.27228715 395.3330155 -339 384 C-339.76328613 383.26394531 -340.52657227 382.52789062 -341.31298828 381.76953125 C-351.3282528 372.06103364 -361.04888676 362.5055437 -369 351 C-369.50047852 350.29020996 -370.00095703 349.58041992 -370.51660156 348.84912109 C-374.43396068 343.2912082 -378.25288703 337.67398951 -382 332 C-382.42168457 331.36368652 -382.84336914 330.72737305 -383.27783203 330.07177734 C-406.12349001 295.14658556 -418.93357443 250.64846523 -420 209 C-420.02723145 208.01032227 -420.05446289 207.02064453 -420.08251953 206.00097656 C-421.028575 165.71924373 -414.02703907 126.66906574 -397 90 C-396.69126953 89.32888184 -396.38253906 88.65776367 -396.06445312 87.96630859 C-385.12246436 64.44565938 -370.5853795 43.47274236 -353.12109375 24.34375 C-351.18168497 22.20075688 -349.30670701 20.01655362 -347.4375 17.8125 C-344.56099111 14.51375127 -341.47595247 11.65216266 -338.13671875 8.828125 C-335.86344379 6.8831658 -333.68924351 4.85139345 -331.5 2.8125 C-314.8178466 -12.14827793 -295.47451526 -24.53447282 -275.17700195 -33.984375 C-273.49739451 -34.76795322 -271.82548418 -35.56804406 -270.15698242 -36.375 C-262.04978806 -40.23515739 -253.84072925 -43.32833766 -245.3125 -46.125 C-244.65304382 -46.34166321 -243.99358765 -46.55832642 -243.31414795 -46.78155518 C-232.97548709 -50.16520195 -222.75972578 -53.28781916 -212 -55 C-210.36780518 -55.26635254 -210.36780518 -55.26635254 -208.70263672 -55.53808594 C-134.19904008 -67.27732675 -58.1750559 -48.95012745 0 0 Z " fill="#7C4697" transform="translate(614,59)"/>
<path d="M0 0 C0.66 0 1.32 0 2 0 C0.44678803 3.56082106 -1.70942508 6.13915634 -4.25 9.0625 C-15.89613611 22.78450727 -25.9157411 37.48260265 -35 53 C-34.42121094 52.26136719 -33.84242188 51.52273437 -33.24609375 50.76171875 C-21.11268808 35.84290517 -4.51395248 24.35430223 13.125 16.9375 C13.86008789 16.62594971 14.59517578 16.31439941 15.35253906 15.9934082 C20.62426491 13.87475497 20.62426491 13.87475497 24 15 C23.48050781 15.44730469 22.96101562 15.89460938 22.42578125 16.35546875 C21.72839844 16.96003906 21.03101563 17.56460938 20.3125 18.1875 C19.62800781 18.77917969 18.94351563 19.37085937 18.23828125 19.98046875 C15.734531 22.23952438 13.37261802 24.60327701 11 27 C9.82645713 28.16370539 8.65190459 29.3263931 7.4765625 30.48828125 C4.83638412 33.10598713 2.20229997 35.72952666 -0.421875 38.36328125 C-1.0209668 38.96438721 -1.62005859 39.56549316 -2.23730469 40.18481445 C-4.63268099 42.65152122 -6.93673413 45.18323437 -9.15234375 47.8125 C-10.70400871 49.64956634 -12.28181055 51.45269421 -13.87890625 53.25 C-25.39019624 66.25763631 -35.52437331 80.15375989 -45.50390625 94.35546875 C-45.91455322 94.93965576 -46.3252002 95.52384277 -46.74829102 96.12573242 C-48.24462987 98.36630066 -49.61380139 100.68966898 -51 103 C-46.71 103.66 -42.42 104.32 -38 105 C-38.061875 106.77375 -38.12375 108.5475 -38.1875 110.375 C-38.14832282 121.48826048 -34.59903429 129.80277829 -27.171875 138.0234375 C-22.11026994 142.91117063 -16.43075751 146.17192551 -10.30078125 149.50170898 C16.91121495 164.32705282 39.56723574 184.83482127 49.3515625 214.984375 C56.88831305 240.68523658 54.30434696 267.34627032 42 291 C40.2061393 294.20527394 38.25787261 297.10641568 36 300 C35.34515625 300.86625 34.6903125 301.7325 34.015625 302.625 C21.57981141 318.50050671 6.72362715 328.19529893 -12 335 C-12.78761719 335.30679687 -13.57523438 335.61359375 -14.38671875 335.9296875 C-27.81166219 340.89052374 -41.76681805 341.51054076 -55.90722656 341.44604492 C-58.73316853 341.43755059 -61.55706912 341.46639345 -64.3828125 341.49804688 C-95.50421476 341.61848954 -123.15101594 331.75730274 -145.6875 309.8125 C-162.912817 292.43465658 -171.57944528 269.67692168 -171.5138855 245.29534912 C-171.50930328 244.62038391 -171.50472107 243.9454187 -171.5 243.25 C-171.49823761 242.55167053 -171.49647522 241.85334106 -171.49465942 241.1338501 C-171.43120741 229.82647561 -170.40479332 219.50905208 -166 209 C-165.74831055 208.3807666 -165.49662109 207.7615332 -165.23730469 207.12353516 C-155.93769489 184.91559905 -137.61092987 168.98220621 -118 156 C-116.7037706 155.12857989 -115.40817649 154.25621389 -114.11328125 153.3828125 C-109.08689433 150.00734774 -104.06519626 146.64336022 -98.90625 143.47265625 C-90.9762545 138.52923309 -85.26946922 134.35673581 -82.41796875 125.11328125 C-80.16229897 113.70844618 -82.94130926 102.54357316 -88.3125 92.4375 C-90.07087961 88.8556156 -90.1818957 88.48468603 -89 85 C-83.75118824 85.48657624 -79.9926886 88.26547398 -75.6875 91.0625 C-74.57665039 91.77116211 -74.57665039 91.77116211 -73.44335938 92.49414062 C-71.62448781 93.65587149 -69.8116341 94.82701482 -68 96 C-68.05994141 94.55947266 -68.05994141 94.55947266 -68.12109375 93.08984375 C-68.07249053 71.52621564 -56.55160732 40.79401643 -43 24 C-44.37775421 31.64027335 -46.29213012 39.08577074 -48.32299805 46.57348633 C-48.53867432 47.37423584 -48.75435059 48.17498535 -48.9765625 49 C-49.27167725 50.0828125 -49.27167725 50.0828125 -49.57275391 51.1875 C-50.07647797 53.01407892 -50.07647797 53.01407892 -50 55 C-49.59910156 54.26136719 -49.19820313 53.52273437 -48.78515625 52.76171875 C-44.52525921 45.15958957 -39.72584749 38.55624021 -34 32 C-33.26652344 31.15566406 -32.53304687 30.31132813 -31.77734375 29.44140625 C-23.15507111 19.69382818 -14.13357497 11.05063015 -3.80859375 3.15234375 C-1.22992877 1.27364245 -1.22992877 1.27364245 0 0 Z " fill="#FDFBFD" transform="translate(509,87)"/>
<path d="M0 0 C1.18078125 0.49371094 2.3615625 0.98742187 3.578125 1.49609375 C5.13535551 2.14337631 6.69265057 2.79050361 8.25 3.4375 C9.02730469 3.76298828 9.80460937 4.08847656 10.60546875 4.42382812 C11.35957031 4.73642578 12.11367188 5.04902344 12.890625 5.37109375 C13.58188477 5.65911865 14.27314453 5.94714355 14.98535156 6.24389648 C16.97191686 6.98946031 18.93306394 7.52784696 21 8 C21 8.66 21 9.32 21 10 C22.175625 10.2165625 22.175625 10.2165625 23.375 10.4375 C26 11 26 11 28 12 C28.0093457 12.8156543 28.01869141 13.63130859 28.02832031 14.47167969 C28.07288091 17.55859313 28.13473139 20.64458981 28.20751953 23.73095703 C28.24893359 25.69931469 28.27120453 27.66804576 28.29296875 29.63671875 C28.58748125 41.24051131 31.22360179 50.81683173 37.1875 60.75 C37.57260742 61.41700928 37.95771484 62.08401855 38.35449219 62.77124023 C39.95278821 65.53779602 41.57632285 68.28874836 43.21142578 71.03369141 C57.17257444 94.52595417 60.2257683 118.52180218 60.1875 145.4375 C60.18656342 146.2858139 60.18562683 147.13412781 60.18466187 148.00814819 C60.15488959 160.43755976 60.00014954 172.7053915 58 185 C57.76603516 186.48910889 57.76603516 186.48910889 57.52734375 188.00830078 C55.46117141 200.72482629 53.37153094 213.1562366 46 224 C45.34 224.33 44.68 224.66 44 225 C44.18103271 224.40574219 44.36206543 223.81148437 44.54858398 223.19921875 C46.4778106 216.82341295 48.30336228 210.4246769 50.0625 204 C50.31837891 203.07960938 50.57425781 202.15921875 50.83789062 201.2109375 C51.58593605 198.48028325 52.30125381 195.74365447 53 193 C53.20375244 192.22978516 53.40750488 191.45957031 53.61743164 190.66601562 C55.49290254 182.69840545 55.35192437 174.6350412 55.3125 166.5 C55.31026428 165.36698959 55.31026428 165.36698959 55.3079834 164.21109009 C55.2677779 152.89639324 54.74773631 142.01483861 52 131 C51.74476563 129.91460937 51.48953125 128.82921875 51.2265625 127.7109375 C47.82404422 115.13098459 41.55440012 103.2345784 34.94946289 92.06518555 C29.65223999 83.0555126 27.11095389 75.42936306 26 65 C25.87367188 63.9378125 25.74734375 62.875625 25.6171875 61.78125 C25.3695795 59.52103339 25.15809953 57.26791047 25 55 C25.71624733 70.80683769 27.46152831 83.41508435 35.65625 96.99609375 C53.24909365 126.32943852 55.65910011 158.00865039 50 191 C49.82307617 192.04865234 49.64615234 193.09730469 49.46386719 194.17773438 C47.29012523 206.76966968 44.93692354 218.59539431 39 230 C38.34 230 37.68 230 37 230 C37.4125 228.80375 37.825 227.6075 38.25 226.375 C38.83914257 224.58523514 39.42174802 222.7933131 40 221 C40.33644531 219.95972656 40.67289062 218.91945313 41.01953125 217.84765625 C49.62808279 189.70059447 48.28298094 160.37345492 35 134 C33.76968202 131.8842649 32.52003614 129.77963422 31.25 127.6875 C26.47247452 119.74249617 25.72281648 112.11129192 25 103 C24.33140969 115.55464025 26.0060269 124.62650317 32.9375 135.1875 C45.13855031 154.03539115 45.50554098 180.27558719 41.69140625 201.7734375 C41.46324219 202.83820313 41.23507812 203.90296875 41 205 C40.86577637 205.64614258 40.73155273 206.29228516 40.59326172 206.95800781 C38.16122451 218.4367925 34.82863876 228.0840503 27 237 C26.67 237.99 26.34 238.98 26 240 C14.25837289 241.02996729 1.1837102 236.31406236 -8 229 C-19.14181532 218.43881449 -27.10540156 206.62434676 -32 192 C-32.433125 190.865625 -32.86625 189.73125 -33.3125 188.5625 C-35.89321031 175.18972839 -33.27928341 165.51999917 -25.875 154.4375 C-19.37241763 145.17730616 -11.2353444 138.85748903 -1.76171875 132.82421875 C2.74867864 129.84493221 6.28574687 127.05558902 9.25 122.5 C10.00023437 121.37078125 10.00023437 121.37078125 10.765625 120.21875 C11.93659529 118.11396796 12.55076969 116.35311116 13 114 C12.5875 114.71285156 12.175 115.42570312 11.75 116.16015625 C6.03670655 125.63555141 0.07075457 130.87158606 -9.375 136.3125 C-21.49629963 143.35081887 -30.98639821 153.14280085 -35.16796875 166.8203125 C-36.15379313 171.1393084 -36.34501468 175.33182829 -36.3125 179.75 C-36.30831055 180.53568359 -36.30412109 181.32136719 -36.29980469 182.13085938 C-36.17242295 188.7492891 -35.11997093 194.71414732 -33 201 C-32.63455078 202.23556641 -32.63455078 202.23556641 -32.26171875 203.49609375 C-27.28623747 218.23389374 -15.24210072 229.09061412 -1.6875 235.875 C2.16063979 237.72796765 6.01613065 239.46026813 10 241 C5.97110809 242.34296397 3.19213815 241.08358382 -0.6875 239.8125 C-1.40921387 239.57982422 -2.13092773 239.34714844 -2.87451172 239.10742188 C-20.67983811 233.23267012 -29.45627066 220.9051014 -40 206 C-40.51175781 205.32066406 -41.02351563 204.64132812 -41.55078125 203.94140625 C-50.75776431 191.21045663 -59.31617451 171.7082945 -58.5078125 155.67578125 C-53.76565698 130.6882695 -36.2880382 113.65216436 -16.20166016 99.75585938 C-13.70119092 98.06669294 -11.17736017 96.41388999 -8.65234375 94.76171875 C4.59021759 85.96584958 9.00916433 78.08842871 13 63 C13.36545088 61.0056187 13.71194083 59.00702093 14 57 C13.62488281 58.2065625 13.24976563 59.413125 12.86328125 60.65625 C12.34693104 62.27101791 11.82997123 63.88559098 11.3125 65.5 C11.06822266 66.29148437 10.82394531 67.08296875 10.57226562 67.8984375 C6.49822508 80.48155007 -0.46937862 87.13116301 -11.625 93.75 C-19.17683546 98.3529984 -26.13521098 103.43421112 -33 109 C-33.74765625 109.58136719 -34.4953125 110.16273438 -35.265625 110.76171875 C-47.15567262 120.42823384 -56.5447643 136.03849397 -60 151 C-62.58569542 176.23094368 -48.69316981 200.82229659 -33.375 219.9375 C-31.93175988 221.63792651 -30.47464752 223.3267376 -29 225 C-28.40445313 225.67933594 -27.80890625 226.35867188 -27.1953125 227.05859375 C-23.03649797 231.51446647 -18.45006091 234.318224 -13 237 C-15 238 -15 238 -17.6171875 237.25 C-43.16585454 227.44715413 -62.38455851 209.59173435 -74.15869141 184.93164062 C-82.63455394 165.4710996 -82.49177182 141.23579893 -75.74609375 121.29296875 C-68.57420639 103.25576974 -54.38047442 89.40699917 -39 78 C-37.80077557 77.09505961 -36.60155728 76.19011108 -35.40234375 75.28515625 C-29.1946831 70.63744568 -22.98780311 66.27507179 -16.26953125 62.38671875 C-5.45538171 55.77910586 3.91525234 47.25424299 8 35 C9.25869169 23.60804354 6.43294183 15.27845321 2 5 C1.32879759 3.3351548 0.66003234 1.6693051 0 0 Z " fill="#7D4898" transform="translate(426,179)"/>
<path d="M0 0 C0.66 0 1.32 0 2 0 C2 0.66 2 1.32 2 2 C2.78375 2.144375 3.5675 2.28875 4.375 2.4375 C7 3 7 3 9 4 C9.01401855 5.22348145 9.01401855 5.22348145 9.02832031 6.47167969 C9.07288091 9.55859313 9.13473139 12.64458981 9.20751953 15.73095703 C9.24893359 17.69931469 9.27120453 19.66804576 9.29296875 21.63671875 C9.58748125 33.24051131 12.22360179 42.81683173 18.1875 52.75 C18.76516113 53.75051392 18.76516113 53.75051392 19.35449219 54.77124023 C20.95278821 57.53779602 22.57632285 60.28874836 24.21142578 63.03369141 C38.17257444 86.52595417 41.2257683 110.52180218 41.1875 137.4375 C41.18656342 138.2858139 41.18562683 139.13412781 41.18466187 140.00814819 C41.15488959 152.43755976 41.00014954 164.7053915 39 177 C38.76603516 178.48910889 38.76603516 178.48910889 38.52734375 180.00830078 C36.46117141 192.72482629 34.37153094 205.1562366 27 216 C26.34 216.33 25.68 216.66 25 217 C25.18103271 216.40574219 25.36206543 215.81148437 25.54858398 215.19921875 C27.4778106 208.82341295 29.30336228 202.4246769 31.0625 196 C31.31837891 195.07960938 31.57425781 194.15921875 31.83789062 193.2109375 C32.58593605 190.48028325 33.30125381 187.74365447 34 185 C34.20375244 184.22978516 34.40750488 183.45957031 34.61743164 182.66601562 C36.49290254 174.69840545 36.35192437 166.6350412 36.3125 158.5 C36.31100952 157.74465973 36.30951904 156.98931946 36.3079834 156.21109009 C36.2677779 144.89639324 35.74773631 134.01483861 33 123 C32.74476563 121.91460937 32.48953125 120.82921875 32.2265625 119.7109375 C28.82404422 107.13098459 22.55440012 95.2345784 15.94946289 84.06518555 C10.65223999 75.0555126 8.11095389 67.42936306 7 57 C6.87367188 55.9378125 6.74734375 54.875625 6.6171875 53.78125 C6.3695795 51.52103339 6.15809953 49.26791047 6 47 C6.71624733 62.80683769 8.46152831 75.41508435 16.65625 88.99609375 C34.24909365 118.32943852 36.65910011 150.00865039 31 183 C30.82307617 184.04865234 30.64615234 185.09730469 30.46386719 186.17773438 C28.29012523 198.76966968 25.93692354 210.59539431 20 222 C19.34 222 18.68 222 18 222 C18.4125 220.80375 18.825 219.6075 19.25 218.375 C19.83914257 216.58523514 20.42174802 214.7933131 21 213 C21.50466797 211.43958984 21.50466797 211.43958984 22.01953125 209.84765625 C30.62808279 181.70059447 29.28298094 152.37345492 16 126 C14.76968202 123.8842649 13.52003614 121.77963422 12.25 119.6875 C7.47247452 111.74249617 6.72281648 104.11129192 6 95 C5.33140969 107.55464025 7.0060269 116.62650317 13.9375 127.1875 C26.13855031 146.03539115 26.50554098 172.27558719 22.69140625 193.7734375 C22.46324219 194.83820313 22.23507812 195.90296875 22 197 C21.79866455 197.96921387 21.79866455 197.96921387 21.59326172 198.95800781 C19.16122451 210.4367925 15.82863876 220.0840503 8 229 C7.67 229.99 7.34 230.98 7 232 C3.14118362 232.47058736 0.69331848 232.12650829 -2.5 230 C-12.33495685 222.12772094 -17.3470877 209.10076232 -20 197 C-21.07446446 181.15164926 -18.24411065 167.96084932 -7.9375 155.875 C-6.65166016 154.41707031 -6.65166016 154.41707031 -5.33984375 152.9296875 C-1.43309638 148.03810065 0.37721553 144.09633311 0.36076355 137.81167603 C0.36694954 135.98184677 0.36694954 135.98184677 0.3732605 134.11505127 C0.36264532 132.77673115 0.35174092 131.4384133 0.34057617 130.10009766 C0.33972929 128.68051166 0.34020624 127.26092435 0.34190369 125.84133911 C0.34276268 121.99872586 0.32515265 118.15639486 0.30418181 114.31384706 C0.28539893 110.29399334 0.28366331 106.27413278 0.28010559 102.25424194 C0.27078985 94.64702974 0.24618248 87.03994722 0.21605712 79.43279207 C0.18249843 70.77020003 0.16602341 62.10760172 0.15097082 53.44496083 C0.11963248 35.62990042 0.06688117 17.81496065 0 0 Z " fill="#7D4B97" transform="translate(445,187)"/>
<path d="M0 0 C0.66 0 1.32 0 2 0 C3.65309206 3.30618412 3.15405522 6.9952843 3.15821838 10.63052368 C3.16562535 11.98678456 3.16562535 11.98678456 3.17318195 13.37044466 C3.18861337 16.41834789 3.1969328 19.46622998 3.20532227 22.51416016 C3.21489636 24.69176929 3.22490615 26.86937654 3.23532104 29.04698181 C3.26242699 34.97434833 3.28340569 40.90172285 3.30332303 46.8291173 C3.32514757 53.01779685 3.3525535 59.20645155 3.37937927 65.39511108 C3.42651006 76.45394317 3.46938692 87.51278631 3.51003437 98.57164399 C3.56160715 112.58580752 3.61889579 126.59994407 3.67708123 140.61408162 C3.79097469 168.07603118 3.89779764 195.53800462 4 223 C4.48709377 221.40755968 4.9717191 219.81436418 5.45530701 218.22085571 C5.86051905 216.89016273 5.86051905 216.89016273 6.2739172 215.53258705 C9.13821164 205.54188764 9.41565611 194.95169719 9.4375 184.625 C9.44136719 183.33658203 9.44523437 182.04816406 9.44921875 180.72070312 C9.32279537 170.03266001 7.66585032 160.12646292 5.09375 149.78125 C4.18149075 146.10370491 3.7457824 142.81326398 4 139 C6.85315147 144.14310808 8.01265197 149.92507142 9.51391602 155.56982422 C10.05578271 157.59983483 10.6104497 159.62604599 11.16601562 161.65234375 C16.31610075 180.71507416 18.22773438 205.77688427 9 224 C7.76795667 226.13302739 6.48971004 228.03145459 5 230 C5.66 230 6.32 230 7 230 C7 230.66 7 231.32 7 232 C3.14118362 232.47058736 0.69331848 232.12650829 -2.5 230 C-12.33495685 222.12772094 -17.3470877 209.10076232 -20 197 C-21.07446446 181.15164926 -18.24411065 167.96084932 -7.9375 155.875 C-6.65166016 154.41707031 -6.65166016 154.41707031 -5.33984375 152.9296875 C-1.43309638 148.03810065 0.37721553 144.09633311 0.36076355 137.81167603 C0.36694954 135.98184677 0.36694954 135.98184677 0.3732605 134.11505127 C0.36264532 132.77673115 0.35174092 131.4384133 0.34057617 130.10009766 C0.33972929 128.68051166 0.34020624 127.26092435 0.34190369 125.84133911 C0.34276268 121.99872586 0.32515265 118.15639486 0.30418181 114.31384706 C0.28539893 110.29399334 0.28366331 106.27413278 0.28010559 102.25424194 C0.27078985 94.64702974 0.24618248 87.03994722 0.21605712 79.43279207 C0.18249843 70.77020003 0.16602341 62.10760172 0.15097082 53.44496083 C0.11963248 35.62990042 0.06688117 17.81496065 0 0 Z " fill="#F4EAF7" transform="translate(445,187)"/>
<path d="M0 0 C0.33 0 0.66 0 1 0 C1 26.07 1 52.14 1 79 C-8.13136189 74.43431906 -11.56427706 63.08603838 -15 54 C-18.7395858 42.41362229 -17.46545961 31.18569484 -12.375 20.1875 C-9.57167815 14.92165229 -6.19219037 9.96282198 -2.92578125 4.9765625 C-1.06180404 2.21558928 -1.06180404 2.21558928 0 0 Z " fill="#7D4897" transform="translate(445,334)"/>
<path d="M0 0 C1.06859779 3.20579337 0.96515883 3.99772866 0.14453125 7.1328125 C-0.06349121 7.93485107 -0.27151367 8.73688965 -0.48583984 9.56323242 C-0.7173877 10.40861572 -0.94893555 11.25399902 -1.1875 12.125 C-1.42162598 12.98649658 -1.65575195 13.84799316 -1.89697266 14.7355957 C-6.11971239 29.90378046 -12.51592428 37.88940223 -25.8125 46.5 C-33.19102522 51.33754242 -40.17606805 56.40606647 -47 62 C-48.20781013 62.93817396 -49.41602873 63.87582281 -50.625 64.8125 C-61.07907211 73.96594812 -70.35514773 90.38323084 -72.3125 104.20703125 C-73.73454681 131.00372585 -54.3908644 157.12578775 -37.6171875 176.2734375 C-34.31104152 179.71775077 -31.22396976 181.81258709 -27 184 C-26.01 184.66 -25.02 185.32 -24 186 C-24.99 186.99 -25.98 187.98 -27 189 C-27.66 188.01 -28.32 187.02 -29 186 C-30.84738308 184.91296778 -30.84738308 184.91296778 -33 183.9375 C-53.20264794 173.01190799 -67.4926454 144.31670495 -74.3125 123.3125 C-78.54585788 107.43740794 -75.66725636 94.26398579 -67.875 79.9375 C-57.23963295 62.73793867 -42.3669944 51.99800424 -25.70263672 41.11376953 C-23.22452308 39.49272645 -20.76135543 37.85243402 -18.3125 36.1875 C-17.56613281 35.68605469 -16.81976563 35.18460937 -16.05078125 34.66796875 C-6.13726823 26.60497816 -3.50648007 11.75789912 0 0 Z " fill="#F6EAF9" transform="translate(441,230)"/>
<path d="M0 0 C0.94002072 2.53980753 1.09161706 3.72788365 0.21484375 6.33203125 C-0.20667969 7.15058594 -0.62820313 7.96914063 -1.0625 8.8125 C-1.46597656 9.62332031 -1.86945313 10.43414062 -2.28515625 11.26953125 C-6.43583534 17.87847131 -11.28808087 22.24644533 -17.8125 26.4375 C-30.89418689 35.19191512 -43.2499113 45.89805664 -47 62 C-48.8367165 78.0521369 -42.96647487 93.70241095 -33.0625 106.25 C-31.71523612 107.83921108 -30.36135993 109.4228472 -29 111 C-28.43410156 111.721875 -27.86820312 112.44375 -27.28515625 113.1875 C-21.83169077 119.96262888 -15.07226237 123.92622038 -7 127 C-7 127.33 -7 127.66 -7 128 C-10.90331443 129.33067537 -12.9345469 129.44979156 -16.78515625 127.82421875 C-32.64423257 118.92267269 -43.388693 106.38040952 -49.125 89.19140625 C-52.65002747 76.33449801 -52.83467371 61.2530283 -46.59375 49.30859375 C-39.58007462 37.41512064 -30.51058063 30.2004908 -18.77636719 23.37329102 C-11.05811318 18.79146626 -6.47505268 13.72094496 -2.625 5.5625 C-2.12226563 4.51191406 -1.61953125 3.46132813 -1.1015625 2.37890625 C-0.73804688 1.59386719 -0.37453125 0.80882812 0 0 Z " fill="#F5EAF8" transform="translate(440,288)"/>
<path d="M0 0 C0.33 0 0.66 0 1 0 C1.07516846 0.72477539 1.15033691 1.44955078 1.2277832 2.19628906 C1.5805512 5.54851825 1.94646097 8.89919496 2.3125 12.25 C2.43044922 13.38953125 2.54839844 14.5290625 2.66992188 15.703125 C4.14124223 28.98273439 7.17919953 39.24296594 13.8125 50.875 C15.08059937 53.17239871 16.3449714 55.47185906 17.60546875 57.7734375 C18.49758057 59.39910645 18.49758057 59.39910645 19.40771484 61.05761719 C35.48114539 90.75970014 36.37870661 129.29409139 26.87304688 161.23828125 C24.85877913 167.61003648 22.61889696 173.85209296 20 180 C20.66 180.33 21.32 180.66 22 181 C21.01 181.99 21.01 181.99 20 183 C19.34 182.34 18.68 181.68 18 181 C17.01 181.99 17.01 181.99 16 183 C16.44622839 180.05489266 17.11632388 177.75162395 18.38671875 175.0390625 C20.56553799 170.03320732 21.47462985 164.77648212 22.5 159.4375 C22.71358154 158.33631836 22.92716309 157.23513672 23.1472168 156.10058594 C30.55928321 117.05903234 29.21383019 82.86473411 8.26171875 48.1171875 C3.57719403 40.32901985 2.244366 32.92541658 1 24 C0.81179688 22.69417969 0.62359375 21.38835937 0.4296875 20.04296875 C-0.08194142 15.8533361 -0.11324318 11.71558766 -0.0625 7.5 C-0.05798828 6.77296875 -0.05347656 6.0459375 -0.04882812 5.296875 C-0.03721193 3.53121319 -0.01928441 1.7655947 0 0 Z " fill="#F9EFFB" transform="translate(450,224)"/>
<path d="M0 0 C2.28898504 3.68106165 2.36485217 7.10934432 2.6875 11.375 C3.55862636 20.08228129 6.66109206 26.38573421 11 34 C18.68072984 48.13512466 23.40330531 63.12350403 23.3125 79.25 C23.30758545 80.29269043 23.3026709 81.33538086 23.29760742 82.40966797 C23.06804518 97.95162055 21.11641027 112.63398698 15 127 C14.43539063 128.39412109 14.43539063 128.39412109 13.859375 129.81640625 C11.3365099 135.83174505 11.3365099 135.83174505 9 137 C8.67 136.34 8.34 135.68 8 135 C6.68 135.33 5.36 135.66 4 136 C4.68835938 135.03513672 4.68835938 135.03513672 5.390625 134.05078125 C18.8680095 114.20278433 21.25659591 84.11674512 17.24609375 60.84375 C15.19194178 51.00999882 11.60198849 42.63381493 6.4375 34.0625 C-0.23151452 22.65648161 -0.37983193 12.91428563 0 0 Z " fill="#F2E9F5" transform="translate(450,278)"/>
<path d="M0 0 C0.66 0 1.32 0 2 0 C3.66679204 3.33358408 3.1540764 7.0782415 3.15821838 10.74441528 C3.16315636 11.66083986 3.16809434 12.57726444 3.17318195 13.52145946 C3.18861401 16.61082133 3.19693298 19.70016233 3.20532227 22.78955078 C3.21489631 24.99671616 3.2249061 27.20387969 3.23532104 29.41104126 C3.26242754 35.41898388 3.28340594 41.4269344 3.30332303 47.43490458 C3.32514723 53.70766558 3.35255332 59.98040206 3.37937927 66.25314331 C3.4236701 76.78675265 3.46449717 87.32037105 3.50268555 97.85400391 C3.54203367 108.70492535 3.58345825 119.55583558 3.62768555 130.40673828 C3.63040982 131.07529984 3.63313409 131.74386141 3.63594092 132.43268241 C3.64962028 135.78657324 3.66334058 139.14046391 3.67708123 142.49435449 C3.7909754 170.32954673 3.89779819 198.16476255 4 226 C2.68 226.33 1.36 226.66 0 227 C0.33 200.6 0.66 174.2 1 147 C0.34 146.67 -0.32 146.34 -1 146 C-0.505 145.01 -0.505 145.01 0 144 C0.09373088 142.09945234 0.12190917 140.19555093 0.12025452 138.29269409 C0.12162918 137.07830658 0.12300385 135.86391907 0.12442017 134.61273193 C0.1208808 133.25988745 0.11724599 131.90704322 0.11352539 130.55419922 C0.11324344 129.13520306 0.11340141 127.71620676 0.1139679 126.29721069 C0.11425555 122.43793537 0.10836391 118.57869094 0.10139394 114.71942282 C0.09515516 110.68885548 0.09455618 106.65828748 0.09336853 102.62771606 C0.09025677 94.99209327 0.08204546 87.35648474 0.07201904 79.72086823 C0.06085311 71.02933259 0.05534624 62.33779628 0.05032361 53.64625525 C0.03986272 35.76416207 0.02226626 17.88208218 0 0 Z " fill="#C1A4D4" transform="translate(445,187)"/>
<path d="M0 0 C6.6 0 13.2 0 20 0 C20.33 1.32 20.66 2.64 21 4 C19.26953125 6.3671875 19.26953125 6.3671875 16.8125 8.875 C14.10953748 11.68608102 11.73571033 14.16055808 9.9375 17.625 C9.298125 18.40875 8.65875 19.1925 8 20 C5.36 20 2.72 20 0 20 C0 13.4 0 6.8 0 0 Z " fill="#FDFBFD" transform="translate(240,80)"/>
<path d="M0 0 C0.33 0.66 0.66 1.32 1 2 C3.31 2 5.62 2 8 2 C8 8.6 8 15.2 8 22 C2.72 22 -2.56 22 -8 22 C-7.38511719 20.37191406 -7.38511719 20.37191406 -6.7578125 18.7109375 C-6.21348243 17.26564731 -5.66921491 15.82033356 -5.125 14.375 C-4.85558594 13.66214844 -4.58617187 12.94929688 -4.30859375 12.21484375 C-2.7865816 8.16851878 -1.33627828 4.11262344 0 0 Z " fill="#EFEDEF" transform="translate(692,338)"/>
<path d="M0 0 C16.83 0 33.66 0 51 0 C51 2.97 51 5.94 51 9 C44.98548772 8.41871578 39.25652369 7.4793698 33.375 6.125 C22.34992403 3.68170778 11.20727857 2.31227813 0 1 C0 0.67 0 0.34 0 0 Z " fill="#ECE8EF" transform="translate(469,0)"/>
<path d="M0 0 C17.82 0 35.64 0 54 0 C54 0.33 54 0.66 54 1 C53.1248877 1.10022461 52.24977539 1.20044922 51.34814453 1.30371094 C47.27255665 1.77613419 43.19836326 2.25880163 39.125 2.75 C38.39502808 2.83792816 37.66505615 2.92585632 36.91296387 3.01644897 C27.52732659 4.16030894 18.29290848 5.46704068 9.12939453 7.86816406 C5.7597925 8.73426709 3.30886349 9.29513596 0 8 C0 5.36 0 2.72 0 0 Z " fill="#F0EAF2" transform="translate(380,0)"/>
<path d="M0 0 C2.28898504 3.68106165 2.36485217 7.10934432 2.6875 11.375 C3.55862636 20.08228129 6.66109206 26.38573421 11 34 C18.38751815 47.5955166 23.58560517 62.41639571 23 78 C22.67 78 22.34 78 22 78 C21.67 75.69 21.34 73.38 21 71 C20.67 74.63 20.34 78.26 20 82 C19.67 82 19.34 82 19 82 C18.97421875 81.04222656 18.9484375 80.08445312 18.921875 79.09765625 C18.29671128 62.73332095 14.93857101 48.17142038 6.4375 34.0625 C-0.23151452 22.65648161 -0.37983193 12.91428563 0 0 Z " fill="#F4E8F8" transform="translate(450,278)"/>
<path d="M0 0 C6.6 0 13.2 0 20 0 C20.33 1.65 20.66 3.3 21 5 C18.43873936 6.294174 15.87606642 7.58540784 13.3125 8.875 C12.59126953 9.23980469 11.87003906 9.60460938 11.12695312 9.98046875 C10.06831055 10.51220703 10.06831055 10.51220703 8.98828125 11.0546875 C8.34415283 11.37937012 7.70002441 11.70405273 7.03637695 12.03857422 C4.73522671 13.12500626 2.36271816 14.05491274 0 15 C0 10.05 0 5.1 0 0 Z " fill="#EEEBF0" transform="translate(320,20)"/>
<path d="M0 0 C2.78530905 2.78530905 2.28594439 4.71353199 2.3293457 8.52246094 C2.32378662 9.42254883 2.31822754 10.32263672 2.3125 11.25 C2.30758545 12.18875977 2.3026709 13.12751953 2.29760742 14.09472656 C2.12816522 24.54626906 0.76485761 34.71125566 -1 45 C-1.17692383 46.04865234 -1.35384766 47.09730469 -1.53613281 48.17773438 C-3.70987477 60.76966968 -6.06307646 72.59539431 -12 84 C-12.66 84 -13.32 84 -14 84 C-13.5875 82.80375 -13.175 81.6075 -12.75 80.375 C-12.16655093 78.58337102 -11.5832294 76.7917005 -11 75 C-10.67515625 74.07574219 -10.3503125 73.15148437 -10.015625 72.19921875 C-7.03692907 62.99963093 -6.00778396 53.84387485 -5.12695312 44.23852539 C-4.23665771 35.11641105 -4.23665771 35.11641105 -2.453125 31.0859375 C-0.03290297 25.36731351 -0.42546258 19.11288919 -0.3125 13 C-0.27833984 11.74832031 -0.24417969 10.49664062 -0.20898438 9.20703125 C-0.12699031 6.13811043 -0.05767981 3.06945794 0 0 Z " fill="#7B5190" transform="translate(477,325)"/>
<path d="M0 0 C2.20826378 -0.02722517 4.41662638 -0.04649729 6.625 -0.0625 C7.85476563 -0.07410156 9.08453125 -0.08570313 10.3515625 -0.09765625 C13.67723791 -0.00863924 16.74047588 0.36313913 20 1 C20 3.64 20 6.28 20 9 C13.4 9 6.8 9 0 9 C0 6.03 0 3.06 0 0 Z " fill="#FEFCFE" transform="translate(420,511)"/>
<path d="M0 0 C1.81640625 0.17578125 1.81640625 0.17578125 4 1 C5.52734375 3.29296875 5.52734375 3.29296875 6.9375 6.1875 C9.25553826 10.68308935 11.41825932 14.41825932 15 18 C15.99 18 16.98 18 18 18 C19.32 14.7 20.64 11.4 22 8 C23.32 8 24.64 8 26 8 C25.57202798 13.70629354 23.15654048 17.41078616 20 22 C20.66 22 21.32 22 22 22 C22 22.66 22 23.32 22 24 C18.14118362 24.47058736 15.69331848 24.12650829 12.5 22 C6.50355876 17.30367213 2.47408192 11.14734776 0 4 C0 2.68 0 1.36 0 0 Z " fill="#F8EFFA" transform="translate(430,395)"/>
<path d="M0 0 C3.63 0 7.26 0 11 0 C11 6.6 11 13.2 11 20 C9.02 19.67 7.04 19.34 5 19 C4.15665671 16.77417611 3.32521449 14.54503974 2.5 12.3125 C2.14228516 11.37374023 2.14228516 11.37374023 1.77734375 10.41601562 C0.37619586 6.59288352 0 4.18884403 0 0 Z " fill="#FDFAFC" transform="translate(689,160)"/>
<path d="M0 0 C0.495 0.639375 0.99 1.27875 1.5 1.9375 C2.325 2.948125 3.15 3.95875 4 5 C4.78697266 5.99966797 4.78697266 5.99966797 5.58984375 7.01953125 C14.65257186 17.95994933 25.97589727 24.02077032 39 29 C34.97110809 30.34296397 32.19213815 29.08358382 28.3125 27.8125 C27.59078613 27.57982422 26.86907227 27.34714844 26.12548828 27.10742188 C14.3703096 23.22887704 6.89404266 17.41212779 -1 8 C-0.01 6.68 0.98 5.36 2 4 C1.01 3.67 0.02 3.34 -1 3 C-0.67 2.01 -0.34 1.02 0 0 Z " fill="#845E98" transform="translate(397,391)"/>
<path d="M0 0 C0.33 0 0.66 0 1 0 C1 5.94 1 11.88 1 18 C1.66 18 2.32 18 3 18 C2.06382621 25.00976432 1.06542862 32.00868557 0 39 C-0.10683105 39.70721191 -0.21366211 40.41442383 -0.32373047 41.14306641 C-1.83048119 50.65118301 -5.01127782 58.78964518 -10 67 C-10.99 67.495 -10.99 67.495 -12 68 C-11.81896729 67.40574219 -11.63793457 66.81148438 -11.45141602 66.19921875 C-9.5221894 59.82341295 -7.69663772 53.4246769 -5.9375 47 C-5.68162109 46.07960938 -5.42574219 45.15921875 -5.16210938 44.2109375 C-2.22107622 33.47503241 -0.67341151 23.52813008 -0.375 12.375 C-0.33632813 11.18003906 -0.29765625 9.98507812 -0.2578125 8.75390625 C-0.16444214 5.83608264 -0.07866422 2.91825079 0 0 Z " fill="#7D5991" transform="translate(482,336)"/>
<path d="M0 0 C0.91007813 0.00902344 1.82015625 0.01804687 2.7578125 0.02734375 C3.45648437 0.03894531 4.15515625 0.05054687 4.875 0.0625 C4.86339844 1.37605469 4.85179687 2.68960938 4.83984375 4.04296875 C4.83046172 5.77864441 4.82136196 7.51432161 4.8125 9.25 C4.80412109 10.11431641 4.79574219 10.97863281 4.78710938 11.86914062 C4.77103188 16.06536769 4.79940962 19.97186886 5.875 24.0625 C6.865 24.3925 7.855 24.7225 8.875 25.0625 C7.555 25.0625 6.235 25.0625 4.875 25.0625 C0.875 17.0625 -3.125 9.0625 -7.125 1.0625 C-4.60024538 -0.19987731 -2.81299534 -0.03606404 0 0 Z " fill="#ECE9EE" transform="translate(675.125,119.9375)"/>
<path d="M0 0 C0.33 0 0.66 0 1 0 C1.07516846 0.72477539 1.15033691 1.44955078 1.2277832 2.19628906 C1.5805512 5.54851825 1.94646097 8.89919496 2.3125 12.25 C2.43044922 13.38953125 2.54839844 14.5290625 2.66992188 15.703125 C4.17887859 29.32242659 7.43765362 39.7803627 14.1875 51.75 C14.84957301 52.94721758 15.51038805 54.14513173 16.16992188 55.34375 C17.76778035 58.23622374 19.37782708 61.1211151 21 64 C19.02 64.495 19.02 64.495 17 65 C16.48050781 63.94941406 15.96101563 62.89882813 15.42578125 61.81640625 C14.72136152 60.39843385 14.0169339 58.98046536 13.3125 57.5625 C12.94745361 56.82257813 12.58240723 56.08265625 12.20629883 55.3203125 C10.35191651 51.58941821 8.43018741 48.01537811 6.1875 44.5 C2.66715703 38.34828956 1.98938448 30.92995962 1 24 C0.90211182 23.34725098 0.80422363 22.69450195 0.70336914 22.02197266 C0.02399303 17.15938444 -0.12154316 12.40512375 -0.0625 7.5 C-0.05798828 6.77296875 -0.05347656 6.0459375 -0.04882812 5.296875 C-0.03721193 3.53121319 -0.01928441 1.7655947 0 0 Z " fill="#E4CBEB" transform="translate(450,224)"/>
<path d="M0 0 C6.6 0 13.2 0 20 0 C20 2.31 20 4.62 20 7 C13.4 7 6.8 7 0 7 C0 4.69 0 2.38 0 0 Z " fill="#EFEFEF" transform="translate(440,513)"/>
<path d="M0 0 C0.66 0.66 1.32 1.32 2 2 C2.45890625 2.45375 2.9178125 2.9075 3.390625 3.375 C4.54674943 4.54234894 5.67966452 5.73285566 6.796875 6.9375 C11.40007279 11.79847687 15.96945075 15.09640221 22 18 C20 19 20 19 17.3828125 18.25 C8.10948546 14.6918889 -1.36252108 10.50533498 -9 4 C-9 3.34 -9 2.68 -9 2 C-7.33388095 1.957279 -5.66617115 1.95936168 -4 2 C-3.67 2.33 -3.34 2.66 -3 3 C-2.01 2.01 -1.02 1.02 0 0 Z " fill="#805498" transform="translate(391,398)"/>
<path d="M0 0 C0.66 0 1.32 0 2 0 C0.35448185 3.84570533 -2.19401609 6.84222304 -4.875 10 C-5.30941406 10.52078125 -5.74382812 11.0415625 -6.19140625 11.578125 C-8.66991116 14.52553625 -11.23242893 17.3225359 -14 20 C-14.99 19.67 -15.98 19.34 -17 19 C-19.99332739 19.9977758 -20.94766315 20.7522025 -23 23 C-23.66 22.67 -24.32 22.34 -25 22 C-18.40288046 14.99246058 -11.43525311 8.98981051 -3.80859375 3.15234375 C-1.22992877 1.27364245 -1.22992877 1.27364245 0 0 Z " fill="#F5EFF9" transform="translate(509,87)"/>
<path d="M0 0 C0.33 0 0.66 0 1 0 C2.69726508 10.60790673 2.37181515 21.3684326 1 32 C-0.98 32.495 -0.98 32.495 -3 33 C-3.31303528 25.57410754 -2.75532534 18.26201609 -2.0625 10.875 C-1.97564941 9.9260083 -1.88879883 8.9770166 -1.79931641 7.99926758 C-1.71214355 7.11005615 -1.6249707 6.22084473 -1.53515625 5.3046875 C-1.456604 4.50015137 -1.37805176 3.69561523 -1.29711914 2.86669922 C-1 1 -1 1 0 0 Z " fill="#F6EEF9" transform="translate(471,348)"/>
<path d="M0 0 C-0.51949219 0.44730469 -1.03898438 0.89460938 -1.57421875 1.35546875 C-6.34438711 5.48748256 -6.34438711 5.48748256 -10.8125 9.9375 C-13 12 -13 12 -16 12 C-16 11.34 -16 10.68 -16 10 C-18.31 9.67 -20.62 9.34 -23 9 C-19.72209215 5.38818396 -15.94456632 4.05305445 -11.5 2.25 C-10.34177734 1.75693359 -10.34177734 1.75693359 -9.16015625 1.25390625 C-8.41636719 0.94839844 -7.67257812 0.64289063 -6.90625 0.328125 C-5.89014648 -0.09098145 -5.89014648 -0.09098145 -4.85351562 -0.51855469 C-3 -1 -3 -1 0 0 Z " fill="#F6F0FA" transform="translate(533,102)"/>
<path d="M0 0 C0.33 1.32 0.66 2.64 1 4 C1.66 2.68 2.32 1.36 3 0 C3.33 0 3.66 0 4 0 C4.2144997 8.27015524 4.07422976 15.96235969 2 24 C1.01 24 0.02 24 -1 24 C-1.66 24.66 -2.32 25.32 -3 26 C-2.86722656 24.96101563 -2.73445313 23.92203125 -2.59765625 22.8515625 C-1.63195686 15.24280055 -0.69780109 7.63908565 0 0 Z " fill="#EFE7F4" transform="translate(478,348)"/>
<path d="M0 0 C0.66 0 1.32 0 2 0 C1.37100758 4.65454391 1.37100758 4.65454391 -0.41796875 6.3203125 C-3.0926368 9.16008352 -3.77158712 12.8458546 -4.9375 16.50390625 C-6 19 -6 19 -9 21 C-11.29777394 25.57161273 -11.74522201 30.34263441 -12.4375 35.35546875 C-13 38 -13 38 -15 40 C-15.9084476 26.37328598 -9.24183147 12.6115406 -1.55078125 1.765625 C-1.03902344 1.18296875 -0.52726562 0.6003125 0 0 Z " fill="#805394" transform="translate(362,280)"/>
<path d="M0 0 C1.17632556 3.52897669 0.74268202 4.78723579 -0.21484375 8.32421875 C-0.48876953 9.35224609 -0.76269531 10.38027344 -1.04492188 11.43945312 C-1.33947266 12.51130859 -1.63402344 13.58316406 -1.9375 14.6875 C-2.22818359 15.77095703 -2.51886719 16.85441406 -2.81835938 17.97070312 C-3.5381418 20.64923773 -4.26562605 23.32543603 -5 26 C-8 26 -8 26 -11 25 C-10.37959842 20.12268911 -8.2917387 16.24210075 -6.0625 11.9375 C-5.70220703 11.23044922 -5.34191406 10.52339844 -4.97070312 9.79492188 C-4.28254032 8.44521029 -3.59208242 7.09666549 -2.89892578 5.74951172 C-1.91791277 3.8402398 -0.95396912 1.92292206 0 0 Z " fill="#F7E9F6" transform="translate(465,111)"/>
<path d="M0 0 C0.99 0 1.98 0 3 0 C3 0.99 3 1.98 3 3 C3.66 3 4.32 3 5 3 C3.48795929 6.72970042 1.30171831 8.67915851 -1.75 11.25 C-6.1843465 15.12523325 -9.72675838 19.1167493 -13 24 C-13 20.75117943 -12.53449093 19.8417842 -10.91796875 17.12890625 C-10.48033203 16.38962891 -10.04269531 15.65035156 -9.59179688 14.88867188 C-9.12837891 14.12103516 -8.66496094 13.35339844 -8.1875 12.5625 C-7.73568359 11.79873047 -7.28386719 11.03496094 -6.81835938 10.24804688 C-2.2197793 2.53451621 -2.2197793 2.53451621 0 0 Z " fill="#82569B" transform="translate(487,118)"/>
<path d="M0 0 C0.94002072 2.53980753 1.09161706 3.72788365 0.21484375 6.33203125 C-0.20667969 7.15058594 -0.62820313 7.96914063 -1.0625 8.8125 C-1.46597656 9.62332031 -1.86945313 10.43414062 -2.28515625 11.26953125 C-6.53207411 18.03170797 -11.61057839 22.5216796 -18.25 26.875 C-19.32894531 27.60203125 -19.32894531 27.60203125 -20.4296875 28.34375 C-25.54138049 31.77069025 -25.54138049 31.77069025 -28 33 C-28.33 32.01 -28.66 31.02 -29 30 C-28.51644043 29.70343506 -28.03288086 29.40687012 -27.53466797 29.10131836 C-25.30703669 27.7254911 -23.09116486 26.33171556 -20.875 24.9375 C-20.11445313 24.47150391 -19.35390625 24.00550781 -18.5703125 23.52539062 C-11.10127912 18.79285654 -6.41787441 13.59978149 -2.625 5.5625 C-2.12226563 4.51191406 -1.61953125 3.46132813 -1.1015625 2.37890625 C-0.73804688 1.59386719 -0.37453125 0.80882812 0 0 Z " fill="#F3DCF9" transform="translate(440,288)"/>
<path d="M0 0 C2.79646482 5.15593418 4.05661718 10.81746157 5.625 16.4375 C5.94984375 17.56994141 6.2746875 18.70238281 6.609375 19.86914062 C6.91617187 20.96291016 7.22296875 22.05667969 7.5390625 23.18359375 C7.81959473 24.17931396 8.10012695 25.17503418 8.38916016 26.20092773 C8.97840773 28.90105703 9.1176332 31.24757176 9 34 C8.01 34 7.02 34 6 34 C5.13747081 30.12397123 4.28327549 26.24620606 3.43652344 22.36669922 C3.00628328 20.40366834 2.56959485 18.44205433 2.1328125 16.48046875 C1.86210937 15.23652344 1.59140625 13.99257813 1.3125 12.7109375 C1.06113281 11.56931152 0.80976563 10.42768555 0.55078125 9.25146484 C0.01632725 6.0963858 -0.10148401 3.19251777 0 0 Z " fill="#EEDAF3" transform="translate(449,326)"/>
<path d="M0 0 C0.61875 0.66 1.2375 1.32 1.875 2 C3.75637427 4.2284549 3.75637427 4.2284549 6 4 C5.3493646 7.727965 3.67559252 10.35056676 1.625 13.5 C1.01914062 14.4384375 0.41328125 15.376875 -0.2109375 16.34375 C-1.74432617 18.62039693 -3.32739371 20.82458568 -5 23 C-4.34240251 17.73229802 -3.26735876 12.69866827 -1.9375 7.5625 C-1.75123047 6.83095703 -1.56496094 6.09941406 -1.37304688 5.34570312 C-0.9186242 3.56296802 -0.45977534 1.78136213 0 0 Z " fill="#855799" transform="translate(463,121)"/>
<path d="M0 0 C1.06859779 3.20579337 0.96515883 3.99772866 0.14453125 7.1328125 C-0.06389404 7.93525391 -0.27231934 8.73769531 -0.48706055 9.56445312 C-0.71820557 10.40943359 -0.94935059 11.25441406 -1.1875 12.125 C-1.41800049 12.98287109 -1.64850098 13.84074219 -1.88598633 14.72460938 C-3.79842284 21.65397574 -5.97815289 27.96722933 -10 34 C-13.125 35.1875 -13.125 35.1875 -16 36 C-15.62488281 35.56171875 -15.24976563 35.1234375 -14.86328125 34.671875 C-6.76781346 24.63920459 -3.62463656 12.15410047 0 0 Z " fill="#EED8F5" transform="translate(441,230)"/>
<path d="M0 0 C1.5 1.375 1.5 1.375 3 3 C3 3.66 3 4.32 3 5 C3.66 5.33 4.32 5.66 5 6 C1.89385373 12.98525059 -1.67522708 18.50643024 -7 24 C-7.66 23.67 -8.32 23.34 -9 23 C-8.60167969 22.42894531 -8.20335937 21.85789062 -7.79296875 21.26953125 C-3.33731452 14.45053731 -1.42632175 7.98239718 0 0 Z " fill="#775390" transform="translate(458,394)"/>
<path d="M0 0 C3.06244229 4.59366344 3.02379872 6.96158572 1.96972656 12.3112793 C1.70627441 13.54938354 1.70627441 13.54938354 1.4375 14.8125 C1.17211426 16.07670776 1.17211426 16.07670776 0.90136719 17.36645508 C-0.8188726 25.05295799 -3.54157182 31.93327843 -7 39 C-7.66 39 -8.32 39 -9 39 C-8.5875 37.80375 -8.175 36.6075 -7.75 35.375 C-7.16085743 33.58523514 -6.57825198 31.7933131 -6 30 C-5.66355469 28.95972656 -5.32710938 27.91945313 -4.98046875 26.84765625 C-2.25516678 17.93683746 -0.91145904 9.23451925 0 0 Z " fill="#8A6E9B" transform="translate(472,370)"/>
<path d="M0 0 C0.33 0 0.66 0 1 0 C1.02493791 4.94384403 1.04297138 9.88765048 1.05493164 14.83154297 C1.05992396 16.50928384 1.06672015 18.18702045 1.07543945 19.86474609 C1.11988714 28.64447123 1.12835446 37.27524345 0 46 C-0.66 46 -1.32 46 -2 46 C-2.02694851 44.04174127 -2.04637218 42.08337774 -2.0625 40.125 C-2.07410156 39.03445313 -2.08570313 37.94390625 -2.09765625 36.8203125 C-2 34 -2 34 -1 32 C-0.92659641 30.02599401 -0.91645396 28.04947691 -0.9375 26.07421875 C-0.94523437 24.88505859 -0.95296875 23.69589844 -0.9609375 22.47070312 C-0.98685818 19.96028521 -1.01289871 17.44986852 -1.0390625 14.93945312 C-1.04679687 13.74642578 -1.05453125 12.55339844 -1.0625 11.32421875 C-1.07410156 10.23197998 -1.08570313 9.13974121 -1.09765625 8.0144043 C-1.00703114 5.21703386 -0.64071602 2.71831337 0 0 Z M-3 14 C-2.01 15.485 -2.01 15.485 -1 17 C-1.99 17.495 -1.99 17.495 -3 18 C-3 16.68 -3 15.36 -3 14 Z " fill="#754B8B" transform="translate(485,308)"/>
<path d="M0 0 C0.33 0 0.66 0 1 0 C1.33 3.63 1.66 7.26 2 11 C2.66 11 3.32 11 4 11 C4.67031719 12.9570868 5.33614683 14.91571113 6 16.875 C6.556875 18.51082031 6.556875 18.51082031 7.125 20.1796875 C8 23 8 23 8 25 C6.68 25.33 5.36 25.66 4 26 C0.36919945 17.14992367 -0.50740908 9.52801503 0 0 Z " fill="#F2E4F6" transform="translate(425,370)"/>
<path d="M0 0 C1.89355469 0.27954102 1.89355469 0.27954102 4 1 C5.29118801 3.67418068 6.30405235 6.14550654 7.25 8.9375 C7.518125 9.67935547 7.78625 10.42121094 8.0625 11.18554688 C10 16.63723693 10 16.63723693 10 19 C9.01 19.33 8.02 19.66 7 20 C4.2472483 13.43252132 1.92556636 6.85618326 0 0 Z " fill="#F6E5F9" transform="translate(468,289)"/>
<path d="M0 0 C0.33 0 0.66 0 1 0 C1 2.97 1 5.94 1 9 C0.34 9 -0.32 9 -1 9 C-1 9.99 -1 10.98 -1 12 C-0.34 12 0.32 12 1 12 C1 17.61 1 23.22 1 29 C0.67 29 0.34 29 0 29 C-0.0825 28.05125 -0.165 27.1025 -0.25 26.125 C-0.4975 25.09375 -0.745 24.0625 -1 23 C-2.98562946 21.77763798 -2.98562946 21.77763798 -5 21 C-4.52525225 18.85318469 -4.04508251 16.70756772 -3.5625 14.5625 C-3.29566406 13.36753906 -3.02882813 12.17257812 -2.75390625 10.94140625 C-2 8 -2 8 -1 7 C-0.63239269 4.67182036 -0.29758419 2.3381615 0 0 Z " fill="#814C99" transform="translate(444,273)"/>
<path d="M0 0 C0.66 0.66 1.32 1.32 2 2 C1.34 2.66 0.68 3.32 0 4 C-0.16677282 7.58343976 -0.16677282 7.58343976 0 11 C0.66 11.33 1.32 11.66 2 12 C-0.475 13.485 -0.475 13.485 -3 15 C-4.32 14.01 -5.64 13.02 -7 12 C-5.44298069 7.32894208 -2.91552627 3.91294315 0 0 Z " fill="#775093" transform="translate(495,107)"/>
<path d="M0 0 C0.33 0 0.66 0 1 0 C1 5.94 1 11.88 1 18 C1.66 18 2.32 18 3 18 C2.34 23.28 1.68 28.56 1 34 C0.01 34 -0.98 34 -2 34 C-1.84660156 32.9584375 -1.69320313 31.916875 -1.53515625 30.84375 C-0.77368738 24.75199907 -0.64298189 18.63077114 -0.4375 12.5 C-0.39431641 11.29601562 -0.35113281 10.09203125 -0.30664062 8.8515625 C-0.20126832 5.90113807 -0.09914097 2.95063929 0 0 Z " fill="#8B699F" transform="translate(482,336)"/>
<path d="M0 0 C2.33264693 3.74785113 2.61538116 7.70765915 3.0625 12 C3.55487662 17.18432914 3.55487662 17.18432914 4.68359375 22.25 C5.12326723 24.68177432 4.25099689 25.93953454 3 28 C-0.85298845 18.87208689 -0.28526127 9.69888308 0 0 Z " fill="#DAC1E5" transform="translate(450,278)"/>
<path d="M0 0 C-3.25423744 3.7680644 -6.5536416 4.88961574 -11.48046875 5.265625 C-13.31544922 5.25789062 -13.31544922 5.25789062 -15.1875 5.25 C-17.03408203 5.25773438 -17.03408203 5.25773438 -18.91796875 5.265625 C-22 5 -22 5 -24 3 C-21.1259578 2.49387936 -18.25097127 1.99493459 -15.375 1.5 C-14.56675781 1.35691406 -13.75851562 1.21382813 -12.92578125 1.06640625 C-8.56122136 0.32123749 -4.44761871 -0.17272306 0 0 Z " fill="#EDE3F4" transform="translate(502,507)"/>
<path d="M0 0 C2.97 0.495 2.97 0.495 6 1 C6 6.94 6 12.88 6 19 C4.06344788 15.12689577 2.93657889 11.40981654 1.875 7.25 C1.69324219 6.55261719 1.51148438 5.85523438 1.32421875 5.13671875 C0.87883548 3.42550935 0.43887484 1.71289017 0 0 Z " fill="#F0E5F2" transform="translate(694,179)"/>
<path d="M0 0 C3.96 0 7.92 0 12 0 C12 2.31 12 4.62 12 7 C8.80862651 6.36747553 6.48762632 5.24396936 3.75 3.5 C3.04359375 3.0565625 2.3371875 2.613125 1.609375 2.15625 C1.07828125 1.7746875 0.5471875 1.393125 0 1 C0 0.67 0 0.34 0 0 Z " fill="#EFE4ED" transform="translate(588,40)"/>
<path d="M0 0 C1.07230715 3.21692145 0.93694604 4.24022299 0.1875 7.4375 C0.01605469 8.19933594 -0.15539062 8.96117187 -0.33203125 9.74609375 C-1.00180216 12.00608098 -1.92984003 13.90620875 -3 16 C-3.33 17.155 -3.66 18.31 -4 19.5 C-4.79053064 22.26685723 -5.60609856 24.51089029 -7 27 C-8.43593927 24.12812145 -7.50230624 22.6381136 -6.6015625 19.58984375 C-6.28703125 18.51798828 -5.9725 17.44613281 -5.6484375 16.34179688 C-5.31070313 15.21837891 -4.97296875 14.09496094 -4.625 12.9375 C-4.295 11.81021484 -3.965 10.68292969 -3.625 9.52148438 C-1.14333164 1.14333164 -1.14333164 1.14333164 0 0 Z " fill="#7E5891" transform="translate(208,173)"/>
<path d="M0 0 C-1.32 4.62 -2.64 9.24 -4 14 C-6 12 -6 12 -6.1953125 9.1796875 C-6.17210937 8.08914062 -6.14890625 6.99859375 -6.125 5.875 C-6.10695312 4.77929688 -6.08890625 3.68359375 -6.0703125 2.5546875 C-6.04710937 1.71164063 -6.02390625 0.86859375 -6 0 C-2.25 -1.125 -2.25 -1.125 0 0 Z " fill="#EDE8F6" transform="translate(206,180)"/>
<path d="M0 0 C1.3921875 0.2784375 1.3921875 0.2784375 2.8125 0.5625 C6.01343771 1.24123881 6.01343771 1.24123881 9 0 C9.99 0.33 10.98 0.66 12 1 C8.37 3.31 4.74 5.62 1 8 C0.02391783 5.07175348 -0.08226668 3.04386724 0 0 Z " fill="#EAE3EC" transform="translate(300,40)"/>
<path d="M0 0 C8.25 0 16.5 0 25 0 C25 0.33 25 0.66 25 1 C22.14633646 1.33821197 19.29219404 1.6706978 16.4375 2 C15.23770508 2.14308594 15.23770508 2.14308594 14.01367188 2.2890625 C9.30547833 2.82714176 4.73852735 3.10176703 0 3 C0 2.01 0 1.02 0 0 Z " fill="#EDE0F3" transform="translate(409,0)"/>
<path d="M0 0 C-1.43130275 3.16168368 -3.17514138 5.62274483 -5.4375 8.25 C-6.03433594 8.95640625 -6.63117188 9.6628125 -7.24609375 10.390625 C-9 12 -9 12 -12 12 C-11.43573848 8.20405883 -9.81748138 6.41289367 -7.125 3.75 C-6.07699219 2.69039063 -6.07699219 2.69039063 -5.0078125 1.609375 C-3 0 -3 0 0 0 Z " fill="#F8F0FC" transform="translate(412,319)"/>
<path d="M0 0 C0.33 0.66 0.66 1.32 1 2 C-0.29470831 4.43429028 -1.63261608 6.69190313 -3.125 9 C-3.516875 9.64195312 -3.90875 10.28390625 -4.3125 10.9453125 C-6.73856604 14.73504964 -8.43924237 16.8314073 -13 18 C-11.70944264 15.25032269 -10.28915704 12.92126698 -8.3984375 10.546875 C-7.66367187 9.61875 -7.66367187 9.61875 -6.9140625 8.671875 C-6.40617187 8.03765625 -5.89828125 7.4034375 -5.375 6.75 C-4.859375 6.1003125 -4.34375 5.450625 -3.8125 4.78125 C-2.54485821 3.18496033 -1.27285639 1.59213474 0 0 Z " fill="#F3DCF7" transform="translate(444,334)"/>
<path d="M0 0 C0.66 0.99 1.32 1.98 2 3 C1.390625 4.83984375 1.390625 4.83984375 0.25 6.9375 C-2.08994345 11.7116128 -2.85102443 16.24849111 -3.5078125 21.49609375 C-4 24 -4 24 -6 26 C-6.60970112 16.85448324 -3.32645283 8.39533334 0 0 Z " fill="#836195" transform="translate(353,294)"/>
<path d="M0 0 C18.34042553 -0.38297872 18.34042553 -0.38297872 27 2 C27 2.66 27 3.32 27 4 C23.81224942 3.6900234 20.6248509 3.37655764 17.4375 3.0625 C16.54224609 2.97548828 15.64699219 2.88847656 14.72460938 2.79882812 C9.79447591 2.31123251 4.89788241 1.7457681 0 1 C0 0.67 0 0.34 0 0 Z " fill="#EFDAF5" transform="translate(469,0)"/>
<path d="M0 0 C0.66 0 1.32 0 2 0 C0.33248852 3.94139078 -2.22710649 6.7892812 -5 10 C-5.66 9.67 -6.32 9.34 -7 9 C-7.763125 9.680625 -8.52625 10.36125 -9.3125 11.0625 C-10.199375 11.701875 -11.08625 12.34125 -12 13 C-12.99 12.67 -13.98 12.34 -15 12 C-14.00097656 11.21753906 -13.00195312 10.43507813 -11.97265625 9.62890625 C-10.66924354 8.60680564 -9.36585961 7.58466832 -8.0625 6.5625 C-7.40314453 6.04623047 -6.74378906 5.52996094 -6.06445312 4.99804688 C-5.43603516 4.50498047 -4.80761719 4.01191406 -4.16015625 3.50390625 C-3.57886963 3.04830322 -2.99758301 2.5927002 -2.39868164 2.12329102 C-1.02763998 1.06382373 -1.02763998 1.06382373 0 0 Z " fill="#F4E9F9" transform="translate(509,87)"/>
<path d="M0 0 C0.28125 2.23046875 0.28125 2.23046875 0 5 C-1.96875 7.23828125 -1.96875 7.23828125 -4.5 9.3125 C-5.3353125 10.00988281 -6.170625 10.70726562 -7.03125 11.42578125 C-7.6809375 11.94527344 -8.330625 12.46476562 -9 13 C-9.66 12.01 -10.32 11.02 -11 10 C-9.35718838 8.33035479 -7.71067239 6.6643536 -6.0625 5 C-5.14597656 4.071875 -4.22945312 3.14375 -3.28515625 2.1875 C-1 0 -1 0 0 0 Z " fill="#ECE4F7" transform="translate(630,438)"/>
<path d="M0 0 C0.66 0.33 1.32 0.66 2 1 C2 1.66 2 2.32 2 3 C2.8971875 3.4021875 2.8971875 3.4021875 3.8125 3.8125 C5.98316883 4.99086308 7.30817212 6.23060981 9 8 C7.41532272 7.71572583 5.8322943 7.42225182 4.25 7.125 C3.36828125 6.96257812 2.4865625 6.80015625 1.578125 6.6328125 C-0.86947744 6.03203736 -2.80599857 5.22002883 -5 4 C-4.34 3.34 -3.68 2.68 -3 2 C-2.01 2 -1.02 2 0 2 C0 1.34 0 0.68 0 0 Z " fill="#855F9D" transform="translate(437,411)"/>
<path d="M0 0 C2 1 2 1 2.61889648 2.75097656 C3.03509883 5.20713029 3.11284638 7.49319308 3.09765625 9.984375 C3.09282227 11.38623047 3.09282227 11.38623047 3.08789062 12.81640625 C3.07951172 13.78449219 3.07113281 14.75257813 3.0625 15.75 C3.05798828 16.73355469 3.05347656 17.71710938 3.04882812 18.73046875 C3.03706483 21.15370791 3.02062684 23.57682273 3 26 C1.02 26.99 1.02 26.99 -1 28 C-0.67 27.13375 -0.34 26.2675 0 25.375 C2.29449553 17.40122121 1.54010007 8.08552538 0 0 Z " fill="#7A508B" transform="translate(433,193)"/>
<path d="M0 0 C0.33 0 0.66 0 1 0 C1.36279456 1.28926992 1.71496698 2.58153272 2.0625 3.875 C2.25972656 4.59429687 2.45695312 5.31359375 2.66015625 6.0546875 C3 8 3 8 2 10 C0.37276701 9.54965877 -1.25173664 9.08944646 -2.875 8.625 C-3.77992188 8.36976563 -4.68484375 8.11453125 -5.6171875 7.8515625 C-8 7 -8 7 -10 5 C-9.34 4.01 -8.68 3.02 -8 2 C-5.36 3.65 -2.72 5.3 0 7 C0 4.69 0 2.38 0 0 Z " fill="#F1E0F6" transform="translate(441,176)"/>
<path d="M0 0 C0.33 0 0.66 0 1 0 C1.89604368 6.04829486 2.11269443 11.8894576 2 18 C0.515625 16.9453125 0.515625 16.9453125 -1 15 C-1.328125 11.6796875 -1.328125 11.6796875 -1.25 7.875 C-1.23453125 6.61429687 -1.2190625 5.35359375 -1.203125 4.0546875 C-1 1 -1 1 0 0 Z " fill="#FEF9FF" transform="translate(471,348)"/>
<path d="M0 0 C-6.15034169 7.48291572 -6.15034169 7.48291572 -10 10 C-9.40140845 3.65492958 -9.40140845 3.65492958 -7.8125 1.0625 C-5.19357381 -0.47273259 -2.97085195 -0.1980568 0 0 Z " fill="#835791" transform="translate(371,258)"/>
<path d="M0 0 C0.66 0.33 1.32 0.66 2 1 C2 3.64 2 6.28 2 9 C1.21625 9.309375 0.4325 9.61875 -0.375 9.9375 C-2.92330128 10.92875038 -2.92330128 10.92875038 -5 12 C-4.35550393 8.98782888 -3.34977818 6.48344164 -1.9375 3.75 C-1.57527344 3.04359375 -1.21304688 2.3371875 -0.83984375 1.609375 C-0.56269531 1.07828125 -0.28554688 0.5471875 0 0 Z " fill="#E9E0ED" transform="translate(678,371)"/>
<path d="M0 0 C5.58507504 2.69319824 10.9400039 5.40473961 16 9 C15.34 9.66 14.68 10.32 14 11 C13.34 10.67 12.68 10.34 12 10 C12 9.34 12 8.68 12 8 C11.38511719 7.90203125 10.77023437 7.8040625 10.13671875 7.703125 C3.48780488 6.47302291 3.48780488 6.47302291 0.9375 4 C0 2 0 2 0 0 Z " fill="#7B578F" transform="translate(577,34)"/>
<path d="M0 0 C0.66 1.32 1.32 2.64 2 4 C-0.57784846 6.64752004 -2.91648098 8.94432065 -6 11 C-6.66 10.34 -7.32 9.68 -8 9 C-5.36 6.03 -2.72 3.06 0 0 Z " fill="#EEE7F7" transform="translate(646,420)"/>
<path d="M0 0 C1.32 0.33 2.64 0.66 4 1 C2.88222229 3.31625061 1.75625908 5.62784605 0.625 7.9375 C0.14933594 8.9265332 0.14933594 8.9265332 -0.3359375 9.93554688 C-2.7734375 14.88671875 -2.7734375 14.88671875 -5 16 C-3.41078475 10.63904723 -1.81027062 5.29156027 0 0 Z " fill="#876992" transform="translate(475,388)"/>
<path d="M0 0 C0.99 0.33 1.98 0.66 3 1 C3 4.96 3 8.92 3 13 C2.01 13 1.02 13 0 13 C0 8.71 0 4.42 0 0 Z " fill="#FEFAFF" transform="translate(456,363)"/>
<path d="M0 0 C0.66 0.33 1.32 0.66 2 1 C0.9894822 3.94734357 -0.00943674 6.01150102 -2 8.4375 C-4.1682954 11.21562849 -5.05903063 13.62819311 -6 17 C-6.66 16.67 -7.32 16.34 -8 16 C-6.42986223 10.03347646 -3.24970218 5.17090975 0 0 Z " fill="#83589A" transform="translate(380,306)"/>
<path d="M0 0 C0.59167969 0.39832031 1.18335938 0.79664063 1.79296875 1.20703125 C5.80986636 3.90025298 9.81567505 6.57039197 14 9 C12 10 12 10 8.9609375 9.00390625 C7.77757812 8.52824219 6.59421875 8.05257813 5.375 7.5625 C4.18648438 7.08941406 2.99796875 6.61632812 1.7734375 6.12890625 C0.85820312 5.75636719 -0.05703125 5.38382812 -1 5 C-0.67 3.35 -0.34 1.7 0 0 Z " fill="#8F6F9F" transform="translate(399,407)"/>
<path d="M0 0 C2.475 0.99 2.475 0.99 5 2 C5.33 1.34 5.66 0.68 6 0 C6.99 0 7.98 0 9 0 C9 2.31 9 4.62 9 7 C5.56072421 5.7580393 2.74792181 4.44259716 0 2 C0 1.34 0 0.68 0 0 Z " fill="#7A518F" transform="translate(432,176)"/>
<path d="M0 0 C1.65 0.33 3.3 0.66 5 1 C4.67 2.98 4.34 4.96 4 7 C3.01 7.33 2.02 7.66 1 8 C-0.42944945 5.64561267 -1.08661261 4.51967567 -0.625 1.75 C-0.41875 1.1725 -0.2125 0.595 0 0 Z " fill="#F3E6F5" transform="translate(420,172)"/>
<path d="M0 0 C0.99 0 1.98 0 3 0 C3.66 1.98 4.32 3.96 5 6 C5.66 6 6.32 6 7 6 C7.33 9.63 7.66 13.26 8 17 C5.83424381 13.75136571 4.37647589 10.39377143 2.875 6.8125 C2.59785156 6.15830078 2.32070313 5.50410156 2.03515625 4.83007812 C1.35402955 3.22120988 0.67664597 1.61075785 0 0 Z " fill="#ECDFF0" transform="translate(681,146)"/>
<path d="M0 0 C0.99 0 1.98 0 3 0 C3.05389087 1.95803507 3.09274217 3.91648909 3.125 5.875 C3.14820313 6.96554688 3.17140625 8.05609375 3.1953125 9.1796875 C3 12 3 12 1 14 C0.63906896 11.85529407 0.28642411 9.70919203 -0.0625 7.5625 C-0.25972656 6.36753906 -0.45695313 5.17257813 -0.66015625 3.94140625 C-0.77230469 2.97074219 -0.88445313 2.00007812 -1 1 C-0.67 0.67 -0.34 0.34 0 0 Z " fill="#EBDEED" transform="translate(701,200)"/>
<path d="M0 0 C2.97 0 5.94 0 9 0 C8.67 1.32 8.34 2.64 8 4 C5.36 4 2.72 4 0 4 C0 2.68 0 1.36 0 0 Z " fill="#FAF6FC" transform="translate(400,0)"/>
<path d="M0 0 C0.66 0.66 1.32 1.32 2 2 C1.59992578 7.1373167 0.17669914 12.3356447 -2 17 C-2.33 17 -2.66 17 -3 17 C-3.40214229 10.83381819 -1.96818336 5.82254243 0 0 Z " fill="#7F5794" transform="translate(451,395)"/>
<path d="M0 0 C0.99 0 1.98 0 3 0 C1.4722133 3.43752007 -0.50181056 6.18953688 -3 9 C-3.66 9 -4.32 9 -5 9 C-5.33 9.66 -5.66 10.32 -6 11 C-6.33 10.34 -6.66 9.68 -7 9 C-5.90751403 7.49147143 -4.80061501 5.99337169 -3.6875 4.5 C-3.07261719 3.6646875 -2.45773437 2.829375 -1.82421875 1.96875 C-1.22222656 1.3190625 -0.62023437 0.669375 0 0 Z " fill="#7A508F" transform="translate(477,162)"/>
<path d="M0 0 C4.62 0 9.24 0 14 0 C14 1.32 14 2.64 14 4 C12.68 4 11.36 4 10 4 C10 3.34 10 2.68 10 2 C8.081875 2.061875 8.081875 2.061875 6.125 2.125 C3.9453125 2.1953125 3.9453125 2.1953125 2 2 C1.34 1.34 0.68 0.68 0 0 Z " fill="#FAFCFB" transform="translate(486,0)"/>
<path d="M0 0 C2 2 2 2 2.1953125 4.3828125 C2.17210937 5.28773438 2.14890625 6.19265625 2.125 7.125 C2.10695313 8.03507812 2.08890625 8.94515625 2.0703125 9.8828125 C2.04710937 10.58148438 2.02390625 11.28015625 2 12 C1.67 12 1.34 12 1 12 C0.67 9.69 0.34 7.38 0 5 C-0.33 8.63 -0.66 12.26 -1 16 C-1.33 16 -1.66 16 -2 16 C-2 11.05 -2 6.1 -2 1 C-1.34 0.67 -0.68 0.34 0 0 Z " fill="#EBD8F0" transform="translate(471,344)"/>
<path d="M0 0 C2.64 0 5.28 0 8 0 C7.02501855 1.5027237 6.04490611 3.00211963 5.0625 4.5 C4.51722656 5.3353125 3.97195312 6.170625 3.41015625 7.03125 C2.71212891 8.00578125 2.71212891 8.00578125 2 9 C1.67 9 1.34 9 1 9 C0.67 6.03 0.34 3.06 0 0 Z " fill="#ECE5F3" transform="translate(239,100)"/>
<path d="M0 0 C0.66 0.33 1.32 0.66 2 1 C2 5.28660804 1.65482381 6.00826069 -0.8125 9.25 C-1.33457031 9.95640625 -1.85664063 10.6628125 -2.39453125 11.390625 C-2.92433594 11.92171875 -3.45414062 12.4528125 -4 13 C-4.99 13 -5.98 13 -7 13 C-6.36771484 11.96939453 -6.36771484 11.96939453 -5.72265625 10.91796875 C-5.17480469 10.01691406 -4.62695312 9.11585938 -4.0625 8.1875 C-3.51722656 7.29417969 -2.97195313 6.40085937 -2.41015625 5.48046875 C-0.88990422 2.99296438 -0.88990422 2.99296438 0 0 Z " fill="#896D9A" transform="translate(456,404)"/>
<path d="M0 0 C1.21065165 3.63195496 0.62784815 5.06531629 -0.4375 8.6875 C-0.72496094 9.68136719 -1.01242187 10.67523438 -1.30859375 11.69921875 C-1.53675781 12.45847656 -1.76492188 13.21773437 -2 14 C-2.99 14 -3.98 14 -5 14 C-5.33 13.34 -5.66 12.68 -6 12 C-4.78515625 9.1796875 -4.78515625 9.1796875 -3.0625 5.875 C-2.49660156 4.77929688 -1.93070312 3.68359375 -1.34765625 2.5546875 C-0.90292969 1.71164063 -0.45820313 0.86859375 0 0 Z " fill="#F1DFF8" transform="translate(465,111)"/>
<path d="M0 0 C-0.33 1.32 -0.66 2.64 -1 4 C-1.66 4 -2.32 4 -3 4 C-3 4.66 -3 5.32 -3 6 C-3.66 6 -4.32 6 -5 6 C-4.34 4.68 -3.68 3.36 -3 2 C-5.64 2.66 -8.28 3.32 -11 4 C-10.3125 2.0625 -10.3125 2.0625 -9 0 C-5.6813976 -1.13531135 -3.31010574 -1.10336858 0 0 Z " fill="#85579E" transform="translate(535,100)"/>
<path d="M0 0 C3.465 1.485 3.465 1.485 7 3 C6.67 4.65 6.34 6.3 6 8 C5.01 8 4.02 8 3 8 C0 2.25 0 2.25 0 0 Z " fill="#845C93" transform="translate(426,179)"/>
<path d="M0 0 C0.33 0 0.66 0 1 0 C1.33 3.63 1.66 7.26 2 11 C2.66 11 3.32 11 4 11 C4 12.98 4 14.96 4 17 C3.01 16.67 2.02 16.34 1 16 C-0.50156874 12.99686252 -0.09281204 10.20932478 -0.0625 6.875 C-0.05347656 5.59367187 -0.04445313 4.31234375 -0.03515625 2.9921875 C-0.02355469 2.00476563 -0.01195312 1.01734375 0 0 Z " fill="#E3D0ED" transform="translate(425,370)"/>
<path d="M0 0 C3.24732932 1.62366466 3.70155136 4.75387839 5 8 C3.02 8 1.04 8 -1 8 C-0.67 5.36 -0.34 2.72 0 0 Z " fill="#EDE5F0" transform="translate(221,372)"/>
<path d="M0 0 C0.66 0 1.32 0 2 0 C4.1519437 3.22791555 4.20086443 4.28400809 4 8 C3.01 8 2.02 8 1 8 C0.34 8.66 -0.32 9.32 -1 10 C-0.67 6.7 -0.34 3.4 0 0 Z " fill="#EBD7ED" transform="translate(476,364)"/>
<path d="M0 0 C3.93846154 3.32307692 3.93846154 3.32307692 4.25 6.75 C4.1675 7.4925 4.085 8.235 4 9 C3.01 9.33 2.02 9.66 1 10 C-0.60725635 6.78548731 -0.05748185 3.56387464 0 0 Z " fill="#FCF6FC" transform="translate(390,366)"/>
<path d="M0 0 C0.56203125 0.22558594 1.1240625 0.45117188 1.703125 0.68359375 C0.589375 1.33328125 0.589375 1.33328125 -0.546875 1.99609375 C-3.27107784 3.57146724 -3.27107784 3.57146724 -5.359375 5.43359375 C-7.296875 6.68359375 -7.296875 6.68359375 -9.41796875 6.26171875 C-10.03800781 6.0709375 -10.65804688 5.88015625 -11.296875 5.68359375 C-9.89135201 4.64747104 -8.47195806 3.6301445 -7.046875 2.62109375 C-6.25796875 2.05261719 -5.4690625 1.48414063 -4.65625 0.8984375 C-2.296875 -0.31640625 -2.296875 -0.31640625 0 0 Z " fill="#7C5490" transform="translate(411.296875,242.31640625)"/>
<path d="M0 0 C0.99 0.33 1.98 0.66 3 1 C2.21572648 2.64936913 1.42234741 4.29441127 0.625 5.9375 C0.18414063 6.85402344 -0.25671875 7.77054687 -0.7109375 8.71484375 C-2 11 -2 11 -4 12 C-3.125 6.25 -3.125 6.25 -2 4 C-1.34 4 -0.68 4 0 4 C0 2.68 0 1.36 0 0 Z " fill="#825592" transform="translate(679,364)"/>
<path d="M0 0 C0.33 0 0.66 0 1 0 C1.41676948 1.76602319 1.8077738 3.53814301 2.1875 5.3125 C2.40792969 6.29863281 2.62835938 7.28476562 2.85546875 8.30078125 C3 11 3 11 1.55078125 12.85546875 C1.03902344 13.23316406 0.52726562 13.61085938 0 14 C-1.33257403 4.58997722 -1.33257403 4.58997722 0 0 Z " fill="#F0DEF4" transform="translate(369,346)"/>
<path d="M0 0 C0.66 0 1.32 0 2 0 C1.39665691 3.70503641 -0.22474237 5.85968148 -2.5625 8.75 C-3.52349609 9.94882813 -3.52349609 9.94882813 -4.50390625 11.171875 C-4.99761719 11.77515625 -5.49132812 12.3784375 -6 13 C-6 9.36848887 -4.98559794 7.89717554 -3.125 4.8125 C-2.59132813 3.91144531 -2.05765625 3.01039063 -1.5078125 2.08203125 C-0.76144531 1.05142578 -0.76144531 1.05142578 0 0 Z " fill="#836D96" transform="translate(480,129)"/>
<path d="M0 0 C0.99 0.33 1.98 0.66 3 1 C2.67 3.64 2.34 6.28 2 9 C1.01 9 0.02 9 -1 9 C-0.67 6.03 -0.34 3.06 0 0 Z " fill="#FAF1F8" transform="translate(476,371)"/>
<path d="M0 0 C1.06528748 2.73019786 1.07998186 3.79298812 0.00390625 6.578125 C-0.47175781 7.45984375 -0.94742187 8.3415625 -1.4375 9.25 C-1.91058594 10.14203125 -2.38367188 11.0340625 -2.87109375 11.953125 C-3.24363281 12.62859375 -3.61617188 13.3040625 -4 14 C-4.99 13.67 -5.98 13.34 -7 13 C-6.66226562 12.48050781 -6.32453125 11.96101563 -5.9765625 11.42578125 C-3.60108299 7.71151993 -1.44237185 4.19599085 0 0 Z " fill="#EBCEF3" transform="translate(440,288)"/>
<path d="M0 0 C0.66 0.33 1.32 0.66 2 1 C2 1.66 2 2.32 2 3 C0.2421875 3.94401042 -1.515625 4.88802083 -3.2734375 5.83203125 C-5.30502365 7.04763493 -5.30502365 7.04763493 -7 10 C-7.99 9.67 -8.98 9.34 -10 9 C-6.83047153 5.73991357 -3.60062011 2.77762123 0 0 Z " fill="#7B5A94" transform="translate(396,250)"/>
<path d="M0 0 C3.3 0.33 6.6 0.66 10 1 C9.67 1.66 9.34 2.32 9 3 C5.7 3 2.4 3 -1 3 C-0.67 2.01 -0.34 1.02 0 0 Z " fill="#714E8A" transform="translate(465,508)"/>
<path d="M0 0 C0.99 0 1.98 0 3 0 C2.814375 0.9075 2.62875 1.815 2.4375 2.75 C1.81366385 5.8437466 1.81366385 5.8437466 2.5625 8.1875 C2.706875 8.785625 2.85125 9.38375 3 10 C2.34 10.99 1.68 11.98 1 13 C-0.00496852 9.98509443 -0.10335303 7.95818308 -0.0625 4.8125 C-0.05347656 3.91144531 -0.04445313 3.01039063 -0.03515625 2.08203125 C-0.02355469 1.39496094 -0.01195312 0.70789063 0 0 Z " fill="#78478D" transform="translate(369,336)"/>
<path d="M0 0 C1.79068573 2.6860286 2.66055791 4.6626589 3.625 7.6875 C3.88539063 8.49574219 4.14578125 9.30398438 4.4140625 10.13671875 C4.60742188 10.75160156 4.80078125 11.36648438 5 12 C4.01 12.33 3.02 12.66 2 13 C0.24252386 8.49646738 -0.19294408 4.82360189 0 0 Z " fill="#EED8F1" transform="translate(453,253)"/>
<path d="M0 0 C0.66 0.99 1.32 1.98 2 3 C1.01 3 0.02 3 -1 3 C-1 3.99 -1 4.98 -1 6 C-2.32 6 -3.64 6 -5 6 C-5 6.66 -5 7.32 -5 8 C-6.32 7.67 -7.64 7.34 -9 7 C-6.03 4.69 -3.06 2.38 0 0 Z " fill="#835695" transform="translate(297,50)"/>
<path d="M0 0 C0.33 1.32 0.66 2.64 1 4 C-2.07322544 4.91058531 -4.80097361 5.08886184 -8 5 C-6.37633534 1.75267068 -3.24612161 1.29844864 0 0 Z " fill="#E6D9ED" transform="translate(559,487)"/>
<path d="M0 0 C2.97 1.98 2.97 1.98 6 4 C5.67 4.99 5.34 5.98 5 7 C4.01 7 3.02 7 2 7 C2 6.34 2 5.68 2 5 C1.34 5 0.68 5 0 5 C-0.33 4.01 -0.66 3.02 -1 2 C-0.67 1.34 -0.34 0.68 0 0 Z " fill="#EBE3EC" transform="translate(294,459)"/>
<path d="M0 0 C0.20086443 3.71599191 0.1519437 4.77208445 -2 8 C-2.66 8 -3.32 8 -4 8 C-4.75 6.25 -4.75 6.25 -5 4 C-1.66666667 0 -1.66666667 0 0 0 Z " fill="#FDF6FE" transform="translate(462,123)"/>
<path d="M0 0 C-3.465 2.97 -3.465 2.97 -7 6 C-7.33 4.35 -7.66 2.7 -8 1 C-3.375 -1.125 -3.375 -1.125 0 0 Z " fill="#F0D9F8" transform="translate(533,102)"/>
<path d="M0 0 C5.02265357 1.18180084 8.0949151 2.44992282 12 6 C10.02 6 8.04 6 6 6 C5.67 5.01 5.34 4.02 5 3 C3.68 3 2.36 3 1 3 C0.67 2.01 0.34 1.02 0 0 Z " fill="#7D5393" transform="translate(561,26)"/>
<path d="M0 0 C0.99 0.66 1.98 1.32 3 2 C0.36 3.98 -2.28 5.96 -5 8 C-5.33 6.68 -5.66 5.36 -6 4 C-4.68 4 -3.36 4 -2 4 C-2 3.34 -2 2.68 -2 2 C-1.34 2 -0.68 2 0 2 C0 1.34 0 0.68 0 0 Z " fill="#7D569C" transform="translate(618,445)"/>
<path d="M0 0 C2.64 0 5.28 0 8 0 C8 1.32 8 2.64 8 4 C5.36 3.34 2.72 2.68 0 2 C0 1.34 0 0.68 0 0 Z " fill="#FBF2FA" transform="translate(428,416)"/>
<path d="M0 0 C2.475 0.495 2.475 0.495 5 1 C5.66 3.31 6.32 5.62 7 8 C4.35247996 5.42215154 2.05567935 3.08351902 0 0 Z " fill="#7F5899" transform="translate(400,402)"/>
<path d="M0 0 C2.90802461 2.21928194 4.95312762 3.92969143 7 7 C6.01 7.33 5.02 7.66 4 8 C3.67 7.01 3.34 6.02 3 5 C2.34 5 1.68 5 1 5 C1 4.34 1 3.68 1 3 C0.34 3 -0.32 3 -1 3 C-0.67 2.01 -0.34 1.02 0 0 Z " fill="#7D499A" transform="translate(393,403)"/>
<path d="M0 0 C0.66 0.99 1.32 1.98 2 3 C1.3203125 5.26171875 1.3203125 5.26171875 0.125 7.6875 C-0.45894531 8.89986328 -0.45894531 8.89986328 -1.0546875 10.13671875 C-1.52261719 11.05904297 -1.52261719 11.05904297 -2 12 C-2.66 12 -3.32 12 -4 12 C-3.52309796 10.37433394 -3.04340334 8.74948689 -2.5625 7.125 C-2.29566406 6.22007812 -2.02882813 5.31515625 -1.75390625 4.3828125 C-1 2 -1 2 0 0 Z " fill="#8B60A3" transform="translate(353,294)"/>
<path d="M0 0 C0.66 0.66 1.32 1.32 2 2 C-3.75 7 -3.75 7 -6 7 C-4.60667426 3.63279613 -3.0210714 2.0140476 0 0 Z " fill="#764E8F" transform="translate(389,297)"/>
<path d="M0 0 C1.32 0 2.64 0 4 0 C3.34 2.97 2.68 5.94 2 9 C0 7 0 7 -0.125 3.375 C-0.08375 2.26125 -0.0425 1.1475 0 0 Z " fill="#E5DBE8" transform="translate(200,185)"/>
<path d="M0 0 C1.65 0 3.3 0 5 0 C3.63016497 3.16115776 3.0109362 3.9927092 0 6 C-1.125 2.25 -1.125 2.25 0 0 Z " fill="#7A5393" transform="translate(482,125)"/>
<path d="M0 0 C2.29632557 4.43956276 3.20238143 7.05687635 2 12 C1.67 10.68 1.34 9.36 1 8 C0.34 8 -0.32 8 -1 8 C-0.67 5.36 -0.34 2.72 0 0 Z " fill="#EEDCF4" transform="translate(474,376)"/>
<path d="M0 0 C0.33 0.66 0.66 1.32 1 2 C1.66 2 2.32 2 3 2 C2.67 4.31 2.34 6.62 2 9 C1.01 8.67 0.02 8.34 -1 8 C-0.67 5.36 -0.34 2.72 0 0 Z " fill="#EAD6EF" transform="translate(427,360)"/>
<path d="M0 0 C0.66 0.66 1.32 1.32 2 2 C1.875 4.5 1.875 4.5 1 7 C-0.98 7.99 -0.98 7.99 -3 9 C-2.01 6.03 -1.02 3.06 0 0 Z " fill="#E9DAF1" transform="translate(687,351)"/>
<path d="M0 0 C0.33 1.32 0.66 2.64 1 4 C0.34 4 -0.32 4 -1 4 C-0.67 4.99 -0.34 5.98 0 7 C-0.99 7.99 -1.98 8.98 -3 10 C-3.66 9.67 -4.32 9.34 -5 9 C-3.35 6.03 -1.7 3.06 0 0 Z " fill="#855A92" transform="translate(437,347)"/>
<path d="M0 0 C1.98 0.99 1.98 0.99 4 2 C3.34 5.3 2.68 8.6 2 12 C1.67 12 1.34 12 1 12 C0.67 8.04 0.34 4.08 0 0 Z " fill="#8B63A1" transform="translate(480,316)"/>
<path d="M0 0 C1.65 0 3.3 0 5 0 C4.67 1.32 4.34 2.64 4 4 C4.66 4.33 5.32 4.66 6 5 C4.02 5.99 4.02 5.99 2 7 C2 5.33333333 2 3.66666667 2 2 C1.34 2 0.68 2 0 2 C0 1.34 0 0.68 0 0 Z " fill="#864D9F" transform="translate(408,312)"/>
<path d="M0 0 C0.33 0 0.66 0 1 0 C1 2.97 1 5.94 1 9 C0.34 9 -0.32 9 -1 9 C-0.67 10.32 -0.34 11.64 0 13 C-0.99 13.66 -1.98 14.32 -3 15 C-2.125 8.125 -2.125 8.125 -1 7 C-0.63239269 4.67182036 -0.29758419 2.3381615 0 0 Z " fill="#9C66B4" transform="translate(444,273)"/>
<path d="M0 0 C2.375 0.4375 2.375 0.4375 5 2 C6.07001562 4.94119871 6.57343918 7.90584243 7 11 C4.23455278 7.54319097 2.15078722 3.85658398 0 0 Z " fill="#7D5694" transform="translate(544,274)"/>
<path d="M0 0 C0.66 0 1.32 0 2 0 C1.60196439 2.88575819 1.20990931 3.82189513 -1.0625 5.75 C-1.701875 6.1625 -2.34125 6.575 -3 7 C-3.66 6.67 -4.32 6.34 -5 6 C-3.38405168 3.95880212 -1.7143618 1.95927063 0 0 Z " fill="#7F5797" transform="translate(484,153)"/>
<path d="M0 0 C0.33 0 0.66 0 1 0 C1.042721 1.66611905 1.04063832 3.33382885 1 5 C0 6 0 6 -2.5625 6.0625 C-3.7690625 6.0315625 -3.7690625 6.0315625 -5 6 C-3.35830472 3.97945196 -1.69088222 1.97956942 0 0 Z " fill="#E6D6F0" transform="translate(629,438)"/>
<path d="M0 0 C2.93200474 2.85276137 5.64315404 5.65079784 8 9 C5 9 5 9 2.3125 6.75 C0 4 0 4 0 0 Z " fill="#865C9C" transform="translate(391,398)"/>
<path d="M0 0 C1 3 1 3 1 7 C0.01 7 -0.98 7 -2 7 C-2 8.32 -2 9.64 -2 11 C-2.66 10.67 -3.32 10.34 -4 10 C-3.43454163 6.04179141 -2.19097652 3.3340947 0 0 Z " fill="#7C5391" transform="translate(551,376)"/>
<path d="M0 0 C2.89932357 2.39509338 3.50168276 4.31245243 4 8 C3.01 8 2.02 8 1 8 C-0.35439668 5.29120665 -0.06501451 2.99066732 0 0 Z " fill="#FAEEFB" transform="translate(466,328)"/>
<path d="M0 0 C2.29633824 3.44450737 2.54016485 5.93812283 3 10 C2.01 9.67 1.02 9.34 0 9 C0 6.03 0 3.06 0 0 Z " fill="#EDE2F3" transform="translate(200,314)"/>
<path d="M0 0 C0.33 0 0.66 0 1 0 C1.1875 2.875 1.1875 2.875 1 6 C0.01 6.66 -0.98 7.32 -2 8 C-2 7.34 -2 6.68 -2 6 C-2.66 5.67 -3.32 5.34 -4 5 C-2.69254251 3.31295807 -1.35827971 1.64639965 0 0 Z " fill="#EEE4F5" transform="translate(385,294)"/>
<path d="M0 0 C0 0.66 0 1.32 0 2 C-0.66 2.66 -1.32 3.32 -2 4 C-2.16681109 7.08347826 -2.16681109 7.08347826 -2 10 C-4.12508244 6.81237635 -4.5020163 4.73487777 -5 1 C-3 0 -3 0 0 0 Z " fill="#F1DEF3" transform="translate(430,187)"/>
<path d="M0 0 C0.66 0.33 1.32 0.66 2 1 C1.5205537 5.21912747 0.83374881 7.79663178 -2 11 C-1 3.57142857 -1 3.57142857 0 0 Z " fill="#90739D" transform="translate(460,133)"/>
<path d="M0 0 C2.475 0.495 2.475 0.495 5 1 C4.67 1.99 4.34 2.98 4 4 C1.9375 4.6875 1.9375 4.6875 0 5 C0 3.35 0 1.7 0 0 Z " fill="#FEFEF4" transform="translate(300,468)"/>
<path d="M0 0 C1.74627478 2.61941217 2.38722388 4.03824877 3 7 C2.01 7.66 1.02 8.32 0 9 C-0.66 6.36 -1.32 3.72 -2 1 C-1.34 0.67 -0.68 0.34 0 0 Z " fill="#F3DFF2" transform="translate(465,322)"/>
<path d="M0 0 C0.66 0 1.32 0 2 0 C2 0.66 2 1.32 2 2 C2.66 2.33 3.32 2.66 4 3 C2.68 3.99 1.36 4.98 0 6 C-0.66 5.67 -1.32 5.34 -2 5 C-1.34 3.35 -0.68 1.7 0 0 Z " fill="#8B51A0" transform="translate(402,320)"/>
<path d="M0 0 C0.66 0.33 1.32 0.66 2 1 C0.60667426 4.36720387 -0.9789286 5.9859524 -4 8 C-4 4 -4 4 -2 1.75 C-1.01 0.88375 -1.01 0.88375 0 0 Z " fill="#F0E3F5" transform="translate(369,269)"/>
<path d="M0 0 C0.66 0 1.32 0 2 0 C1.74438677 2.3431213 1.40729228 4.67843403 1 7 C0.01 7.495 0.01 7.495 -1 8 C-1.33 6.02 -1.66 4.04 -2 2 C-1.34 2 -0.68 2 0 2 C0 1.34 0 0.68 0 0 Z " fill="#794F8F" transform="translate(463,128)"/>
<path d="M0 0 C-1.0625 1.5625 -1.0625 1.5625 -3 3 C-6.6875 2.6875 -6.6875 2.6875 -10 2 C-6.5980513 -0.09350689 -3.94727588 -0.17942163 0 0 Z " fill="#E8D1EB" transform="translate(502,507)"/>
<path d="M0 0 C0.66 0.66 1.32 1.32 2 2 C0.35 3.98 -1.3 5.96 -3 8 C-3.33 7.01 -3.66 6.02 -4 5 C-3.34 5 -2.68 5 -2 5 C-1.7834375 4.0409375 -1.7834375 4.0409375 -1.5625 3.0625 C-1 1 -1 1 0 0 Z " fill="#7B5D94" transform="translate(644,419)"/>
<path d="M0 0 C0.99 0 1.98 0 3 0 C1.75023244 3.65316671 1.32901247 4.78065836 -2 7 C-1.125 2.25 -1.125 2.25 0 0 Z " fill="#75528C" transform="translate(657,401)"/>
<path d="M0 0 C3.26954202 0.56371414 4.82575883 1.49962266 7 4 C6.34 5.32 5.68 6.64 5 8 C4.938125 7.38125 4.87625 6.7625 4.8125 6.125 C4.171081 3.72238859 4.171081 3.72238859 1.4375 2.75 C0.633125 2.5025 -0.17125 2.255 -1 2 C-0.67 1.34 -0.34 0.68 0 0 Z " fill="#714987" transform="translate(401,400)"/>
<path d="M0 0 C0.33 0 0.66 0 1 0 C1.125 5.75 1.125 5.75 0 8 C-0.66 8 -1.32 8 -2 8 C-1.125 1.125 -1.125 1.125 0 0 Z " fill="#795086" transform="translate(481,369)"/>
<path d="M0 0 C0.66 0.33 1.32 0.66 2 1 C1.34 2.65 0.68 4.3 0 6 C-1.32 6 -2.64 6 -4 6 C-3.34 4.68 -2.68 3.36 -2 2 C-1.34 2 -0.68 2 0 2 C0 1.34 0 0.68 0 0 Z " fill="#825397" transform="translate(344,290)"/>
<path d="M0 0 C1.98 0.495 1.98 0.495 4 1 C3.525625 1.37125 3.05125 1.7425 2.5625 2.125 C0.47794198 4.62646962 0.35378509 6.81593418 0 10 C-0.33 10 -0.66 10 -1 10 C-1.125 2.25 -1.125 2.25 0 0 Z " fill="#E5D6ED" transform="translate(705,280)"/>
<path d="M0 0 C0.66 0.33 1.32 0.66 2 1 C1 4 1 4 -1.0625 5.1875 C-1.701875 5.455625 -2.34125 5.72375 -3 6 C-3 4.68 -3 3.36 -3 2 C-2.01 1.34 -1.02 0.68 0 0 Z " fill="#7E4DA1" transform="translate(414,224)"/>
<path d="M0 0 C0.66 0 1.32 0 2 0 C2.36629408 4.27343092 1.40814077 6.48812804 -1 10 C-2.27351308 7.45297384 -1.80191925 6.5717055 -1.0625 3.875 C-0.86785156 3.15054688 -0.67320312 2.42609375 -0.47265625 1.6796875 C-0.31667969 1.12539062 -0.16070312 0.57109375 0 0 Z " fill="#815FA2" transform="translate(202,190)"/>
<path d="M0 0 C0.625 1.875 0.625 1.875 1 4 C0.34 4.66 -0.32 5.32 -1 6 C-3.125 5.625 -3.125 5.625 -5 5 C-3.35 3.35 -1.7 1.7 0 0 Z " fill="#875D9E" transform="translate(519,114)"/>
<path d="M0 0 C0.66 0.66 1.32 1.32 2 2 C1.34 2.66 0.68 3.32 0 4 C-0.70710678 5.64991582 -1.37943989 7.31562256 -2 9 C-2.66 7.68 -3.32 6.36 -4 5 C-2.68 3.35 -1.36 1.7 0 0 Z " fill="#825591" transform="translate(495,107)"/>
<path d="M0 0 C1.32 0 2.64 0 4 0 C5.23921302 2.97411124 6.30058404 5.85262818 7 9 C4.04070881 6.24479785 1.96318174 3.53372712 0 0 Z " fill="#EBD9F4" transform="translate(653,100)"/>
<path d="M0 0 C1.32 1.32 2.64 2.64 4 4 C2.02 4.99 2.02 4.99 0 6 C-0.66 5.01 -1.32 4.02 -2 3 C-1.34 2.01 -0.68 1.02 0 0 Z " fill="#E8DEED" transform="translate(274,442)"/>
<path d="M0 0 C0.66 0.33 1.32 0.66 2 1 C1.01 2.485 1.01 2.485 0 4 C-0.66 4 -1.32 4 -2 4 C-2 4.66 -2 5.32 -2 6 C-2.99 5.67 -3.98 5.34 -5 5 C-3.35 3.35 -1.7 1.7 0 0 Z " fill="#795286" transform="translate(525,407)"/>
<path d="M0 0 C1.88343932 3.76687864 2.22057835 5.02958963 2 9 C1.01 9 0.02 9 -1 9 C-0.67 6.03 -0.34 3.06 0 0 Z " fill="#EADCEE" transform="translate(482,370)"/>
<path d="M0 0 C0.66 0.33 1.32 0.66 2 1 C0.75023244 4.65316671 0.32901247 5.78065836 -3 8 C-2.25 2.25 -2.25 2.25 0 0 Z " fill="#EDE4F6" transform="translate(395,285)"/>
<path d="M0 0 C0.33 0.99 0.66 1.98 1 3 C0.01 3 -0.98 3 -2 3 C-2 3.99 -2 4.98 -2 6 C-3.65 6 -5.3 6 -7 6 C-4.74259377 3.66475218 -2.7194239 1.81294927 0 0 Z " fill="#F6E6FA" transform="translate(503,114)"/>
<path d="M0 0 C-1.36983503 3.16115776 -1.9890638 3.9927092 -5 6 C-5.66 5.34 -6.32 4.68 -7 4 C-2.25 0 -2.25 0 0 0 Z " fill="#EED9F3" transform="translate(511,87)"/>
<path d="M0 0 C2.8125 -0.25 2.8125 -0.25 6 0 C7.875 2 7.875 2 9 4 C6.03 3.01 3.06 2.02 0 1 C0 0.67 0 0.34 0 0 Z " fill="#EADCEF" transform="translate(548,19)"/>
</svg>
